  0
SECTION
  2
HEADER
  9
$ACADVER
  1
AC1018
  9
$ACADMAINTVER
 70
     0
  9
$DWGCODEPAGE
  3
ANSI_1252
  9
$INSBASE
 10
0.0
 20
0.0
 30
0.0
  9
$EXTMIN
 10
25491017.6464819
 20
6672157.354
 30
0.0
  9
$EXTMAX
 10
25513943.1690563
 20
6686022.682
 30
0.0
  9
$LIMMIN
 10
0.0
 20
0.0
  9
$LIMMAX
 10
12.0
 20
9.0
  9
$ORTHOMODE
 70
     0
  9
$REGENMODE
 70
     1
  9
$FILLMODE
 70
     1
  9
$QTEXTMODE
 70
     0
  9
$MIRRTEXT
 70
     1
  9
$LTSCALE
 40
1.0
  9
$ATTMODE
 70
     1
  9
$TEXTSIZE
 40
0.2
  9
$TRACEWID
 40
0.05
  9
$TEXTSTYLE
  7
Standard
  9
$CLAYER
  8
0
  9
$CELTYPE
  6
ByLayer
  9
$CECOLOR
 62
   256
  9
$CELTSCALE
 40
1.0
  9
$DISPSILH
 70
     0
  9
$DIMSCALE
 40
1.0
  9
$DIMASZ
 40
0.18
  9
$DIMEXO
 40
0.0625
  9
$DIMDLI
 40
0.38
  9
$DIMRND
 40
0.0
  9
$DIMDLE
 40
0.0
  9
$DIMEXE
 40
0.18
  9
$DIMTP
 40
0.0
  9
$DIMTM
 40
0.0
  9
$DIMTXT
 40
0.18
  9
$DIMCEN
 40
0.09
  9
$DIMTSZ
 40
0.0
  9
$DIMTOL
 70
     0
  9
$DIMLIM
 70
     0
  9
$DIMTIH
 70
     1
  9
$DIMTOH
 70
     1
  9
$DIMSE1
 70
     0
  9
$DIMSE2
 70
     0
  9
$DIMTAD
 70
     0
  9
$DIMZIN
 70
     0
  9
$DIMBLK
  1

  9
$DIMASO
 70
     1
  9
$DIMSHO
 70
     1
  9
$DIMPOST
  1

  9
$DIMAPOST
  1

  9
$DIMALT
 70
     0
  9
$DIMALTD
 70
     2
  9
$DIMALTF
 40
25.4
  9
$DIMLFAC
 40
1.0
  9
$DIMTOFL
 70
     0
  9
$DIMTVP
 40
0.0
  9
$DIMTIX
 70
     0
  9
$DIMSOXD
 70
     0
  9
$DIMSAH
 70
     0
  9
$DIMBLK1
  1

  9
$DIMBLK2
  1

  9
$DIMSTYLE
  2
Standard
  9
$DIMCLRD
 70
     0
  9
$DIMCLRE
 70
     0
  9
$DIMCLRT
 70
     0
  9
$DIMTFAC
 40
1.0
  9
$DIMGAP
 40
0.09
  9
$DIMJUST
 70
     0
  9
$DIMSD1
 70
     0
  9
$DIMSD2
 70
     0
  9
$DIMTOLJ
 70
     1
  9
$DIMTZIN
 70
     0
  9
$DIMALTZ
 70
     0
  9
$DIMALTTZ
 70
     0
  9
$DIMUPT
 70
     0
  9
$DIMDEC
 70
     4
  9
$DIMTDEC
 70
     4
  9
$DIMALTU
 70
     2
  9
$DIMALTTD
 70
     2
  9
$DIMTXSTY
  7
Standard
  9
$DIMAUNIT
 70
     0
  9
$DIMADEC
 70
     0
  9
$DIMALTRND
 40
0.0
  9
$DIMAZIN
 70
     0
  9
$DIMDSEP
 70
    46
  9
$DIMATFIT
 70
     3
  9
$DIMFRAC
 70
     0
  9
$DIMLDRBLK
  1

  9
$DIMLUNIT
 70
     2
  9
$DIMLWD
 70
    -2
  9
$DIMLWE
 70
    -2
  9
$DIMTMOVE
 70
     0
  9
$LUNITS
 70
     2
  9
$LUPREC
 70
     4
  9
$SKETCHINC
 40
0.1
  9
$FILLETRAD
 40
0.5
  9
$AUNITS
 70
     0
  9
$AUPREC
 70
     0
  9
$MENU
  1
.
  9
$ELEVATION
 40
0.0
  9
$PELEVATION
 40
0.0
  9
$THICKNESS
 40
0.0
  9
$LIMCHECK
 70
     0
  9
$CHAMFERA
 40
0.5
  9
$CHAMFERB
 40
0.5
  9
$CHAMFERC
 40
1.0
  9
$CHAMFERD
 40
0.0
  9
$SKPOLY
 70
     0
  9
$TDCREATE
 40
2455343.56230316
  9
$TDUCREATE
 40
2455343.728969826
  9
$TDUPDATE
 40
2455343.562303171
  9
$TDUUPDATE
 40
2455343.728969838
  9
$TDINDWG
 40
0.0000000116
  9
$TDUSRTIMER
 40
0.0000000116
  9
$USRTIMER
 70
     1
  9
$ANGBASE
 50
0.0
  9
$ANGDIR
 70
     0
  9
$PDMODE
 70
     0
  9
$PDSIZE
 40
0.0
  9
$PLINEWID
 40
0.0
  9
$SPLFRAME
 70
     0
  9
$SPLINETYPE
 70
     6
  9
$SPLINESEGS
 70
     8
  9
$HANDSEED
  5
000200D1
  9
$SURFTAB1
 70
     6
  9
$SURFTAB2
 70
     6
  9
$SURFTYPE
 70
     6
  9
$SURFU
 70
     6
  9
$SURFV
 70
     6
  9
$UCSBASE
  2

  9
$UCSNAME
  2

  9
$UCSORG
 10
0.0
 20
0.0
 30
0.0
  9
$UCSXDIR
 10
1.0
 20
0.0
 30
0.0
  9
$UCSYDIR
 10
0.0
 20
1.0
 30
0.0
  9
$UCSORTHOREF
  2

  9
$UCSORTHOVIEW
 70
     0
  9
$UCSORGTOP
 10
0.0
 20
0.0
 30
0.0
  9
$UCSORGBOTTOM
 10
0.0
 20
0.0
 30
0.0
  9
$UCSORGLEFT
 10
0.0
 20
0.0
 30
0.0
  9
$UCSORGRIGHT
 10
0.0
 20
0.0
 30
0.0
  9
$UCSORGFRONT
 10
0.0
 20
0.0
 30
0.0
  9
$UCSORGBACK
 10
0.0
 20
0.0
 30
0.0
  9
$PUCSBASE
  2

  9
$PUCSNAME
  2

  9
$PUCSORG
 10
0.0
 20
0.0
 30
0.0
  9
$PUCSXDIR
 10
1.0
 20
0.0
 30
0.0
  9
$PUCSYDIR
 10
0.0
 20
1.0
 30
0.0
  9
$PUCSORTHOREF
  2

  9
$PUCSORTHOVIEW
 70
     0
  9
$PUCSORGTOP
 10
0.0
 20
0.0
 30
0.0
  9
$PUCSORGBOTTOM
 10
0.0
 20
0.0
 30
0.0
  9
$PUCSORGLEFT
 10
0.0
 20
0.0
 30
0.0
  9
$PUCSORGRIGHT
 10
0.0
 20
0.0
 30
0.0
  9
$PUCSORGFRONT
 10
0.0
 20
0.0
 30
0.0
  9
$PUCSORGBACK
 10
0.0
 20
0.0
 30
0.0
  9
$USERI1
 70
     0
  9
$USERI2
 70
     0
  9
$USERI3
 70
     0
  9
$USERI4
 70
     0
  9
$USERI5
 70
     0
  9
$USERR1
 40
0.0
  9
$USERR2
 40
0.0
  9
$USERR3
 40
0.0
  9
$USERR4
 40
0.0
  9
$USERR5
 40
0.0
  9
$WORLDVIEW
 70
     1
  9
$SHADEDGE
 70
     3
  9
$SHADEDIF
 70
    70
  9
$TILEMODE
 70
     1
  9
$MAXACTVP
 70
    64
  9
$PINSBASE
 10
0.0
 20
0.0
 30
0.0
  9
$PLIMCHECK
 70
     0
  9
$PEXTMIN
 10
1.000000000000000E+20
 20
1.000000000000000E+20
 30
1.000000000000000E+20
  9
$PEXTMAX
 10
-1.000000000000000E+20
 20
-1.000000000000000E+20
 30
-1.000000000000000E+20
  9
$PLIMMIN
 10
0.0
 20
0.0
  9
$PLIMMAX
 10
12.0
 20
9.0
  9
$UNITMODE
 70
     0
  9
$VISRETAIN
 70
     1
  9
$PLINEGEN
 70
     0
  9
$PSLTSCALE
 70
     1
  9
$TREEDEPTH
 70
  3020
  9
$CMLSTYLE
  2
Standard
  9
$CMLJUST
 70
     0
  9
$CMLSCALE
 40
1.0
  9
$PROXYGRAPHICS
 70
     1
  9
$MEASUREMENT
 70
     0
  9
$CELWEIGHT
370
    -1
  9
$ENDCAPS
280
     0
  9
$JOINSTYLE
280
     0
  9
$LWDISPLAY
290
     0
  9
$INSUNITS
 70
     1
  9
$HYPERLINKBASE
  1

  9
$STYLESHEET
  1

  9
$XEDIT
290
     1
  9
$CEPSNTYPE
380
     0
  9
$PSTYLEMODE
290
     1
  9
$FINGERPRINTGUID
  2
{E7F7769E-AACA-40AB-9EF3-61BBAFBCBA26}
  9
$VERSIONGUID
  2
{FAEB1C32-E019-11D5-929B-00C0DF256EC4}
  9
$EXTNAMES
290
     1
  9
$PSVPSCALE
 40
0.0
  9
$OLESTARTUP
290
     0
  9
$SORTENTS
280
   127
  9
$INDEXCTL
280
     0
  9
$HIDETEXT
280
     1
  9
$XCLIPFRAME
290
     0
  9
$HALOGAP
280
     0
  9
$OBSCOLOR
 70
   257
  9
$OBSLTYPE
280
     0
  9
$INTERSECTIONDISPLAY
280
     0
  9
$INTERSECTIONCOLOR
 70
   257
  9
$DIMASSOC
280
     2
  9
$PROJECTNAME
  1

  0
ENDSEC
  0
SECTION
  2
CLASSES
  0
CLASS
  1
ACDBDICTIONARYWDFLT
  2
AcDbDictionaryWithDefault
  3
ObjectDBX Classes
 90
        0
 91
        4
280
     0
281
     0
  0
CLASS
  1
VISUALSTYLE
  2
AcDbVisualStyle
  3
ObjectDBX Classes
 90
     4095
 91
        4
280
     0
281
     0
  0
ENDSEC
  0
SECTION
  2
TABLES
  0
TABLE
  2
VPORT
  5
8
330
0
100
AcDbSymbolTable
 70
     1
  0
VPORT
  5
29
330
8
100
AcDbSymbolTableRecord
100
AcDbViewportTableRecord
  2
*Active
 70
     0
 10
0.0
 20
0.0
 11
1.0
 21
1.0
 12
80.25
 22
106.4409457059851
 13
0.0
 23
0.0
 14
0.5
 24
0.5
 15
0.5
 25
0.5
 16
0.0
 26
0.0
 36
1.0
 17
0.0
 27
0.0
 37
0.0
 40
113.3818914119703
 41
0.8863849310366128
 42
50.0
 43
0.0
 44
0.0
 50
0.0
 51
0.0
 71
     0
 72
  1000
 73
     1
 74
     3
 75
     0
 76
     0
 77
     0
 78
     0
281
     0
 65
     1
110
0.0
120
0.0
130
0.0
111
1.0
121
0.0
131
0.0
112
0.0
122
1.0
132
0.0
 79
     0
146
0.0
  0
ENDTAB
  0
TABLE
  2
LTYPE
  5
5
330
0
100
AcDbSymbolTable
 70
     1
  0
LTYPE
  5
14
330
5
100
AcDbSymbolTableRecord
100
AcDbLinetypeTableRecord
  2
ByBlock
 70
     0
  3

 72
    65
 73
     0
 40
0.0
  0
LTYPE
  5
15
330
5
100
AcDbSymbolTableRecord
100
AcDbLinetypeTableRecord
  2
ByLayer
 70
     0
  3

 72
    65
 73
     0
 40
0.0
  0
LTYPE
  5
16
330
5
100
AcDbSymbolTableRecord
100
AcDbLinetypeTableRecord
  2
Continuous
 70
     0
  3
Solid line
 72
    65
 73
     0
 40
0.0
  0
ENDTAB
  0
TABLE
  2
LAYER
  5
2
330
0
100
AcDbSymbolTable
 70
     1
  0
LAYER
  5
10
330
2
100
AcDbSymbolTableRecord
100
AcDbLayerTableRecord
  2
0
 70
     0
 62
     7
  6
Continuous
370
    -3
390
F
  0
ENDTAB
  0
TABLE
  2
STYLE
  5
3
330
0
100
AcDbSymbolTable
 70
     1
  0
STYLE
  5
11
330
3
100
AcDbSymbolTableRecord
100
AcDbTextStyleTableRecord
  2
Standard
 70
     0
 40
0.0
 41
1.0
 50
0.0
 71
     0
 42
0.2
  3
txt
  4

  0
ENDTAB
  0
TABLE
  2
VIEW
  5
6
330
0
100
AcDbSymbolTable
 70
     0
  0
ENDTAB
  0
TABLE
  2
UCS
  5
7
330
0
100
AcDbSymbolTable
 70
     0
  0
ENDTAB
  0
TABLE
  2
APPID
  5
9
330
0
100
AcDbSymbolTable
 70
     1
  0
APPID
  5
12
330
9
100
AcDbSymbolTableRecord
100
AcDbRegAppTableRecord
  2
ACAD
 70
     0
  0
ENDTAB
  0
TABLE
  2
DIMSTYLE
  5
A
330
0
100
AcDbSymbolTable
 70
     1
100
AcDbDimStyleTable
  0
DIMSTYLE
105
27
330
A
100
AcDbSymbolTableRecord
100
AcDbDimStyleTableRecord
  2
Standard
 70
     0
340
11
  0
ENDTAB
  0
TABLE
  2
BLOCK_RECORD
  5
1
330
0
100
AcDbSymbolTable
 70
     1
  0
BLOCK_RECORD
  5
1F
330
1
100
AcDbSymbolTableRecord
100
AcDbBlockTableRecord
  2
*Model_Space
340
22
  0
BLOCK_RECORD
  5
1B
330
1
100
AcDbSymbolTableRecord
100
AcDbBlockTableRecord
  2
*Paper_Space
340
1E
  0
BLOCK_RECORD
  5
23
330
1
100
AcDbSymbolTableRecord
100
AcDbBlockTableRecord
  2
*Paper_Space0
340
26
  0
ENDTAB
  0
ENDSEC
  0
SECTION
  2
BLOCKS
  0
BLOCK
  5
20
330
1F
100
AcDbEntity
  8
0
100
AcDbBlockBegin
  2
*Model_Space
 70
     0
 10
0.0
 20
0.0
 30
0.0
  3
*Model_Space
  1

  0
ENDBLK
  5
21
330
1F
100
AcDbEntity
  8
0
100
AcDbBlockEnd
  0
BLOCK
  5
1C
330
1B
100
AcDbEntity
 67
     1
  8
0
100
AcDbBlockBegin
  2
*Paper_Space
 70
     0
 10
0.0
 20
0.0
 30
0.0
  3
*Paper_Space
  1

  0
ENDBLK
  5
1D
330
1B
100
AcDbEntity
 67
     1
  8
0
100
AcDbBlockEnd
  0
BLOCK
  5
24
330
23
100
AcDbEntity
  8
0
100
AcDbBlockBegin
  2
*Paper_Space0
 70
     0
 10
0.0
 20
0.0
 30
0.0
  3
*Paper_Space0
  1

  0
ENDBLK
  5
25
330
23
100
AcDbEntity
  8
0
100
AcDbBlockEnd
  0
ENDSEC
  0
SECTION
  2
ENTITIES
  0
LWPOLYLINE
  5
20000
  8
0
100
AcDbEntity
100
AcDbPolyline
 70
0
 90
3
 10
25504843.8376557
 20
6677733.711
 10
25504805.6416939
 20
6677778.744
 10
25504784.7137148
 20
6677796.933
  0
LWPOLYLINE
  5
20001
  8
0
100
AcDbEntity
100
AcDbPolyline
 70
0
 90
3
 10
25503644.6403549
 20
6679565.382
 10
25503631.8243677
 20
6679560.614
 10
25503627.7753717
 20
6679551.48
  0
LWPOLYLINE
  5
20002
  8
0
100
AcDbEntity
100
AcDbPolyline
 70
0
 90
4
 10
25503918.9570805
 20
6679497.905
 10
25503851.1281484
 20
6679515.778
 10
25503690.1418094
 20
6679553.968
 10
25503644.6403549
 20
6679565.382
  0
LWPOLYLINE
  5
20003
  8
0
100
AcDbEntity
100
AcDbPolyline
 70
0
 90
3
 10
25504809.8236897
 20
6677819.181
 10
25504801.529698
 20
6677810.935
 10
25504784.7137148
 20
6677796.933
  0
LWPOLYLINE
  5
20004
  8
0
100
AcDbEntity
100
AcDbPolyline
 70
0
 90
3
 10
25504809.8236897
 20
6677819.181
 10
25504800.9226986
 20
6677817.996
 10
25504778.9022206
 20
6677805.64
  0
LWPOLYLINE
  5
20005
  8
0
100
AcDbEntity
100
AcDbPolyline
 70
0
 90
19
 10
25504851.1376484
 20
6677720.086
 10
25504813.1756863
 20
6677681.55
 10
25504785.7262138
 20
6677654.166
 10
25504762.6107369
 20
6677631.106
 10
25504726.1372734
 20
6677599.405
 10
25504699.6567998
 20
6677577.267
 10
25504661.8913376
 20
6677548.703
 10
25504637.8228617
 20
6677531.732
 10
25504610.8513886
 20
6677514.351
 10
25504569.7724297
 20
6677488.693
 10
25504542.1609573
 20
6677472.83
 10
25504486.7540127
 20
6677441.322
 10
25504441.4265581
 20
6677420.327
 10
25504402.9695965
 20
6677404.358
 10
25504367.7191318
 20
6677391.587
 10
25504330.6386689
 20
6677378.819
 10
25504287.9777115
 20
6677365.785
 10
25504227.1297724
 20
6677350.651
 10
25504180.0333195
 20
6677339.393
  0
LWPOLYLINE
  5
20006
  8
0
100
AcDbEntity
100
AcDbPolyline
 70
0
 90
4
 10
25494044.7799547
 20
6680218.442
 10
25493997.5700019
 20
6680215.678
 10
25493774.6842248
 20
6680218.767
 10
25493696.8508027
 20
6680220.359
  0
LWPOLYLINE
  5
20007
  8
0
100
AcDbEntity
100
AcDbPolyline
 70
0
 90
4
 10
25504855.4141441
 20
6677747.294
 10
25504841.6506578
 20
6677760.981
 10
25504829.6576698
 20
6677775.565
 10
25504809.8236897
 20
6677819.181
  0
LWPOLYLINE
  5
20008
  8
0
100
AcDbEntity
100
AcDbPolyline
 70
0
 90
2
 10
25508110.5598889
 20
6681411.535
 10
25508101.5688979
 20
6681421.976
  0
LWPOLYLINE
  5
20009
  8
0
100
AcDbEntity
100
AcDbPolyline
 70
0
 90
38
 10
25508707.8007917
 20
6680750.391
 10
25508657.5988419
 20
6680807.649
 10
25508640.0653594
 20
6680826.534
 10
25508631.0263685
 20
6680836.141
 10
25508620.461379
 20
6680846.186
 10
25508591.489408
 20
6680874.026
 10
25508581.3579181
 20
6680881.999
 10
25508576.6739228
 20
6680886.257
 10
25508567.7444317
 20
6680895.973
 10
25508546.0684534
 20
6680915.844
 10
25508527.8779716
 20
6680931.896
 10
25508506.4184931
 20
6680950.568
 10
25508489.2065103
 20
6680964.546
 10
25508476.6795228
 20
6680975.356
 10
25508463.1720363
 20
6680986.822
 10
25508450.1000494
 20
6680997.633
 10
25508435.2865642
 20
6681011.39
 10
25508421.3445781
 20
6681024.056
 10
25508408.1650913
 20
6681036.612
 10
25508399.7780997
 20
6681044.146
 10
25508384.8576146
 20
6681059.539
 10
25508370.2641292
 20
6681074.713
 10
25508357.1951423
 20
6681088.032
 10
25508331.494668
 20
6681115.978
 10
25508318.1001814
 20
6681130.824
 10
25508302.9641965
 20
6681148.289
 10
25508288.2622112
 20
6681164.227
 10
25508273.7852257
 20
6681185.399
 10
25508252.445747
 20
6681213.013
 10
25508240.7967587
 20
6681228.402
 10
25508227.7317718
 20
6681245.319
 10
25508212.8152867
 20
6681263.656
 10
25508192.6723068
 20
6681288.76
 10
25508178.4093211
 20
6681306.77
 10
25508168.3913311
 20
6681318.558
 10
25508152.9273466
 20
6681335.042
 10
25508142.7998567
 20
6681346.395
 10
25508109.2338903
 20
6681386.51
  0
LWPOLYLINE
  5
2000A
  8
0
100
AcDbEntity
100
AcDbPolyline
 70
0
 90
2
 10
25508091.9519075
 20
6681406.511
 10
25508081.2004183
 20
6681417.86
  0
LWPOLYLINE
  5
2000B
  8
0
100
AcDbEntity
100
AcDbPolyline
 70
0
 90
27
 10
25508720.5827789
 20
6680770.032
 10
25508674.2678252
 20
6680821.213
 10
25508659.0913404
 20
6680836.901
 10
25508645.0218545
 20
6680851.48
 10
25508633.480366
 20
6680862.574
 10
25508608.1828913
 20
6680885.713
 10
25508578.457921
 20
6680912.341
 10
25508521.532978
 20
6680959.736
 10
25508498.2885012
 20
6680979.232
 10
25508454.6490448
 20
6681018.064
 10
25508440.1995593
 20
6681031.921
 10
25508426.506073
 20
6681044.056
 10
25508413.6975858
 20
6681054.519
 10
25508396.7806027
 20
6681070.525
 10
25508373.5411259
 20
6681093.663
 10
25508354.0971454
 20
6681114.579
 10
25508329.7551697
 20
6681142.467
 10
25508305.5711939
 20
6681170.195
 10
25508285.3407141
 20
6681194.753
 10
25508262.5847369
 20
6681225.488
 10
25508245.2007543
 20
6681248.143
 10
25508225.9192736
 20
6681271.909
 10
25508209.1672903
 20
6681293.93
 10
25508197.9448015
 20
6681306.923
 10
25508166.6508328
 20
6681344.948
 10
25508145.3153542
 20
6681372.199
 10
25508128.6563708
 20
6681390.985
  0
LWPOLYLINE
  5
2000C
  8
0
100
AcDbEntity
100
AcDbPolyline
 70
0
 90
2
 10
25508109.2338903
 20
6681386.51
 10
25508091.9519075
 20
6681406.511
  0
LWPOLYLINE
  5
2000D
  8
0
100
AcDbEntity
100
AcDbPolyline
 70
0
 90
2
 10
25508128.6563708
 20
6681390.985
 10
25508110.5598889
 20
6681411.535
  0
LWPOLYLINE
  5
2000E
  8
0
100
AcDbEntity
100
AcDbPolyline
 70
0
 90
42
 10
25508720.5827789
 20
6680770.032
 10
25508744.5612549
 20
6680741.182
 10
25508760.6187389
 20
6680720.447
 10
25508784.3847151
 20
6680688.254
 10
25508803.2516962
 20
6680661.701
 10
25508821.1191784
 20
6680635.149
 10
25508834.6311649
 20
6680613.599
 10
25508862.2856372
 20
6680565.864
 10
25508880.1471193
 20
6680534.406
 10
25508890.2081093
 20
6680514.314
 10
25508903.8005957
 20
6680484.041
 10
25508908.3300912
 20
6680472.769
 10
25508916.8460826
 20
6680452.316
 10
25508929.1580703
 20
6680414.776
 10
25508933.4145661
 20
6680403.187
 10
25508944.0940554
 20
6680368.466
 10
25508945.533054
 20
6680356.289
 10
25508953.2970462
 20
6680314.848
 10
25508957.2535422
 20
6680280.317
 10
25508960.1195394
 20
6680245.787
 10
25508961.1815383
 20
6680222.526
 10
25508961.497538
 20
6680182.729
 10
25508959.8200397
 20
6680147.841
 10
25508956.6510428
 20
6680081.518
 10
25508953.6545458
 20
6680007.562
 10
25508955.0980444
 20
6679998.838
 10
25508955.7875437
 20
6679967.945
 10
25508955.0410444
 20
6679951.591
 10
25508957.9060416
 20
6679916.335
 10
25508962.2275373
 20
6679883.075
 10
25508971.2575282
 20
6679836.908
 10
25508982.2925172
 20
6679795.463
 10
25508999.6774998
 20
6679745.47
 10
25509022.3259772
 20
6679690.2
 10
25509049.1489503
 20
6679631.109
 10
25509071.0879284
 20
6679590.378
 10
25509083.4179161
 20
6679568.194
 10
25509107.9003916
 20
6679526.914
 10
25509137.6488618
 20
6679482.539
 10
25509162.6838368
 20
6679447.619
 10
25509188.448811
 20
6679415.061
 10
25509216.5762829
 20
6679382.863
  0
LWPOLYLINE
  5
2000F
  8
0
100
AcDbEntity
100
AcDbPolyline
 70
0
 90
46
 10
25509206.8032927
 20
6679359.642
 10
25509187.9158116
 20
6679382.009
 10
25509163.2893362
 20
6679412.265
 10
25509151.2538482
 20
6679427.3
 10
25509125.7983737
 20
6679462.007
 10
25509100.7143988
 20
6679497.641
 10
25509093.3129062
 20
6679510.815
 10
25509079.52292
 20
6679531.323
 10
25509069.3429301
 20
6679547.468
 10
25509043.531456
 20
6679594.414
 10
25509025.3084742
 20
6679629.947
 10
25508999.2305003
 20
6679686.814
 10
25508984.0700154
 20
6679724.383
 10
25508968.3605311
 20
6679768.165
 10
25508957.6465418
 20
6679802.298
 10
25508950.449049
 20
6679830.863
 10
25508946.5750529
 20
6679847.835
 10
25508939.6690598
 20
6679887.527
 10
25508936.3610631
 20
6679912.565
 10
25508933.7080658
 20
6679942.145
 10
25508932.0625674
 20
6679961.71
 10
25508930.4155691
 20
6679979.978
 10
25508929.6965698
 20
6679998.707
 10
25508932.4025671
 20
6680013.168
 10
25508932.4360671
 20
6680041.076
 10
25508935.454064
 20
6680083.259
 10
25508938.2115613
 20
6680140.648
 10
25508940.1180594
 20
6680183.945
 10
25508938.9675605
 20
6680229.471
 10
25508935.4155641
 20
6680282.602
 10
25508929.8910696
 20
6680314.967
 10
25508927.0380725
 20
6680332.587
 10
25508922.7995767
 20
6680354.566
 10
25508917.6300819
 20
6680373.58
 10
25508911.444088
 20
6680394.912
 10
25508908.9545905
 20
6680406.783
 10
25508897.498102
 20
6680440.175
 10
25508883.449116
 20
6680476.908
 10
25508866.0621334
 20
6680513.738
 10
25508851.446148
 20
6680541.293
 10
25508829.6101699
 20
6680579.241
 10
25508800.0901994
 20
6680626.377
 10
25508786.9482125
 20
6680646.42
 10
25508766.492233
 20
6680675.187
 10
25508725.483274
 20
6680729.383
 10
25508707.8007917
 20
6680750.391
  0
LWPOLYLINE
  5
20010
  8
0
100
AcDbEntity
100
AcDbPolyline
 70
0
 90
2
 10
25504855.4141441
 20
6677747.294
 10
25504843.8376557
 20
6677733.711
  0
LWPOLYLINE
  5
20011
  8
0
100
AcDbEntity
100
AcDbPolyline
 70
0
 90
2
 10
25503009.8804896
 20
6679725.792
 10
25503016.6269829
 20
6679740.088
  0
LWPOLYLINE
  5
20012
  8
0
100
AcDbEntity
100
AcDbPolyline
 70
0
 90
2
 10
25504855.4141441
 20
6677747.294
 10
25504862.3291372
 20
6677731.453
  0
LWPOLYLINE
  5
20013
  8
0
100
AcDbEntity
100
AcDbPolyline
 70
0
 90
2
 10
25504774.4247251
 20
6677929.89
 10
25504770.8422287
 20
6677941.008
  0
LWPOLYLINE
  5
20014
  8
0
100
AcDbEntity
100
AcDbPolyline
 70
0
 90
2
 10
25504737.8367617
 20
6677909.715
 10
25504733.7562657
 20
6677921.535
  0
LWPOLYLINE
  5
20015
  8
0
100
AcDbEntity
100
AcDbPolyline
 70
0
 90
2
 10
25504784.7137148
 20
6677796.933
 10
25504778.9022206
 20
6677805.64
  0
LWPOLYLINE
  5
20016
  8
0
100
AcDbEntity
100
AcDbPolyline
 70
0
 90
2
 10
25504843.8376557
 20
6677733.711
 10
25504851.1376484
 20
6677720.086
  0
LWPOLYLINE
  5
20017
  8
0
100
AcDbEntity
100
AcDbPolyline
 70
0
 90
2
 10
25504862.3291372
 20
6677731.453
 10
25504851.1376484
 20
6677720.086
  0
LWPOLYLINE
  5
20018
  8
0
100
AcDbEntity
100
AcDbPolyline
 70
0
 90
2
 10
25504843.8376557
 20
6677733.711
 10
25504862.3291372
 20
6677731.453
  0
LWPOLYLINE
  5
20019
  8
0
100
AcDbEntity
100
AcDbPolyline
 70
0
 90
2
 10
25504851.1376484
 20
6677720.086
 10
25504855.4141441
 20
6677747.294
  0
LWPOLYLINE
  5
2001A
  8
0
100
AcDbEntity
100
AcDbPolyline
 70
0
 90
2
 10
25496863.5961359
 20
6677872.831
 10
25496866.6966328
 20
6677859.689
  0
LWPOLYLINE
  5
2001B
  8
0
100
AcDbEntity
100
AcDbPolyline
 70
0
 90
4
 10
25504809.8236897
 20
6677819.181
 10
25504807.1176924
 20
6677831.618
 10
25504797.0642024
 20
6677856.487
 10
25504775.465724
 20
6677918.488
  0
LWPOLYLINE
  5
2001C
  8
0
100
AcDbEntity
100
AcDbPolyline
 70
0
 90
2
 10
25504775.465724
 20
6677918.488
 10
25504774.4247251
 20
6677929.89
  0
LWPOLYLINE
  5
2001D
  8
0
100
AcDbEntity
100
AcDbPolyline
 70
0
 90
2
 10
25504770.8422287
 20
6677941.008
 10
25504765.1002344
 20
6677950.998
  0
LWPOLYLINE
  5
2001E
  8
0
100
AcDbEntity
100
AcDbPolyline
 70
0
 90
2
 10
25504733.7562657
 20
6677921.535
 10
25504730.483269
 20
6677930.66
  0
LWPOLYLINE
  5
2001F
  8
0
100
AcDbEntity
100
AcDbPolyline
 70
0
 90
8
 10
25493204.4502951
 20
6683078.768
 10
25493218.8172807
 20
6683022.828
 10
25493233.6092659
 20
6682973.774
 10
25493253.483246
 20
6682916.247
 10
25493283.5917159
 20
6682839.821
 10
25493365.7196338
 20
6682659.497
 10
25493492.2700072
 20
6682382.791
 10
25493556.7609427
 20
6682244
  0
LWPOLYLINE
  5
20020
  8
0
100
AcDbEntity
100
AcDbPolyline
 70
0
 90
7
 10
25493194.7063048
 20
6683056.356
 10
25493220.3102792
 20
6682970.798
 10
25493241.1797583
 20
6682911.941
 10
25493259.2832402
 20
6682866.781
 10
25493354.8356447
 20
6682652.777
 10
25493488.6215109
 20
6682363.634
 10
25493543.2069563
 20
6682242.881
  0
LWPOLYLINE
  5
20021
  8
0
100
AcDbEntity
100
AcDbPolyline
 70
0
 90
5
 10
25493545.8069537
 20
6682237.129
 10
25493569.1984303
 20
6682185.383
 10
25493679.7073198
 20
6681949.503
 10
25493777.550722
 20
6681736.044
 10
25493797.1702023
 20
6681689.305
  0
LWPOLYLINE
  5
20022
  8
0
100
AcDbEntity
100
AcDbPolyline
 70
0
 90
5
 10
25493559.4354401
 20
6682238.244
 10
25493581.1174184
 20
6682191.583
 10
25493692.1058074
 20
6681948.759
 10
25493783.4077161
 20
6681753.906
 10
25493812.8341867
 20
6681693.972
  0
LWPOLYLINE
  5
20023
  8
0
100
AcDbEntity
100
AcDbPolyline
 70
0
 90
27
 10
25492270.8747286
 20
6680170.232
 10
25492241.5712579
 20
6680158.734
 10
25492208.525791
 20
6680143.895
 10
25492169.0838304
 20
6680125.054
 10
25492125.2553743
 20
6680101.017
 10
25492084.9879145
 20
6680078.618
 10
25491944.7945547
 20
6679989.522
 10
25491811.9601875
 20
6679904.585
 10
25491771.3352282
 20
6679880.049
 10
25491722.3697771
 20
6679852.451
 10
25491670.1643293
 20
6679825.912
 10
25491631.459868
 20
6679807.873
 10
25491599.7938997
 20
6679794.347
 10
25491575.6664238
 20
6679784.865
 10
25491548.3069512
 20
6679775.131
 10
25491510.528489
 20
6679764.758
 10
25491471.1225284
 20
6679754.388
 10
25491429.4395701
 20
6679745.973
 10
25491390.6906088
 20
6679740.485
 10
25491327.8491717
 20
6679735.026
 10
25491231.473268
 20
6679728.63
 10
25491186.8658126
 20
6679724.777
 10
25491153.0018465
 20
6679720.26
 10
25491115.2278843
 20
6679713.794
 10
25491082.3369172
 20
6679706.671
 10
25491052.7009468
 20
6679698.893
 10
25491017.6464819
 20
6679688.198
  0
LWPOLYLINE
  5
20024
  8
0
100
AcDbEntity
100
AcDbPolyline
 70
0
 90
28
 10
25492278.7502208
 20
6680158.598
 10
25492248.9312506
 20
6680146.681
 10
25492202.2037973
 20
6680126.335
 10
25492176.1878233
 20
6680113.822
 10
25492136.467363
 20
6680091.149
 10
25492083.3209162
 20
6680058.363
 10
25491985.6550139
 20
6679999.385
 10
25491819.1691803
 20
6679894.466
 10
25491781.2537183
 20
6679871.882
 10
25491735.481264
 20
6679845.698
 10
25491693.2588062
 20
6679823.055
 10
25491655.5698439
 20
6679804.83
 10
25491601.2848982
 20
6679781.032
 10
25491560.6674388
 20
6679766
 10
25491515.3959841
 20
6679751.404
 10
25491475.3405242
 20
6679742.336
 10
25491444.0785554
 20
6679736.188
 10
25491408.9095906
 20
6679730.045
 10
25491360.3936391
 20
6679724.568
 10
25491321.3216782
 20
6679721.685
 10
25491230.8072687
 20
6679715.934
 10
25491193.6888058
 20
6679713.049
 10
25491166.0113335
 20
6679709.501
 10
25491136.3793631
 20
6679704.978
 10
25491109.3508902
 20
6679699.802
 10
25491083.0039165
 20
6679693.694
 10
25491052.7949467
 20
6679685.269
 10
25491019.4324801
 20
6679674.934
  0
LWPOLYLINE
  5
20025
  8
0
100
AcDbEntity
100
AcDbPolyline
 70
0
 90
5
 10
25493831.1881683
 20
6681654.29
 10
25493867.9861315
 20
6681572.15
 10
25493885.6676138
 20
6681534.26
 10
25493936.1465634
 20
6681425.835
 10
25493958.7950407
 20
6681377.21
  0
LWPOLYLINE
  5
20026
  8
0
100
AcDbEntity
100
AcDbPolyline
 70
0
 90
7
 10
25493815.524184
 20
6681649.737
 10
25493850.0046495
 20
6681576.375
 10
25493855.0326445
 20
6681566.763
 10
25493864.0811354
 20
6681548.106
 10
25493868.8551307
 20
6681536.016
 10
25493921.3845781
 20
6681420.935
 10
25493944.512555
 20
6681370.63
  0
LWPOLYLINE
  5
20027
  8
0
100
AcDbEntity
100
AcDbPolyline
 70
0
 90
8
 10
25493746.8422527
 20
6680201.891
 10
25493710.9252886
 20
6680202.707
 10
25493572.8739266
 20
6680205.241
 10
25493355.8766436
 20
6680208.679
 10
25493201.3322982
 20
6680211.343
 10
25492831.8876676
 20
6680218.885
 10
25492679.9498196
 20
6680218.617
 10
25492648.2038513
 20
6680217.747
  0
LWPOLYLINE
  5
20028
  8
0
100
AcDbEntity
100
AcDbPolyline
 70
0
 90
7
 10
25492594.4099051
 20
6680216.321
 10
25492565.4294341
 20
6680215.599
 10
25492527.7309718
 20
6680213.991
 10
25492474.6915248
 20
6680208.336
 10
25492414.8875846
 20
6680198.529
 10
25492371.2806282
 20
6680188.3
 10
25492365.0836344
 20
6680186.481
  0
LWPOLYLINE
  5
20029
  8
0
100
AcDbEntity
100
AcDbPolyline
 70
0
 90
7
 10
25492593.8564056
 20
6680232.952
 10
25492586.1894133
 20
6680232.706
 10
25492516.3089832
 20
6680227.523
 10
25492469.50853
 20
6680221.86
 10
25492402.3735971
 20
6680209.927
 10
25492361.484638
 20
6680200.166
 10
25492355.0476445
 20
6680198.252
  0
LWPOLYLINE
  5
2002A
  8
0
100
AcDbEntity
100
AcDbPolyline
 70
0
 90
7
 10
25493696.8508027
 20
6680220.359
 10
25493571.6859278
 20
6680221.986
 10
25493350.9406486
 20
6680224.79
 10
25493200.7317988
 20
6680227.139
 10
25492835.0591644
 20
6680231.956
 10
25492661.484838
 20
6680235.321
 10
25492647.7658517
 20
6680234.952
  0
LWPOLYLINE
  5
2002B
  8
0
100
AcDbEntity
100
AcDbPolyline
 70
0
 90
16
 10
25492602.9848965
 20
6676631.846
 10
25492593.1014064
 20
6676630.916
 10
25492554.4539451
 20
6676629.03
 10
25492514.520985
 20
6676629.078
 10
25492471.6915278
 20
6676631.062
 10
25492426.9320726
 20
6676634.658
 10
25492397.1801023
 20
6676638.728
 10
25492358.2881412
 20
6676644.983
 10
25492316.501183
 20
6676652.895
 10
25492270.5782289
 20
6676662.882
 10
25492237.0702624
 20
6676672.855
 10
25492206.8712926
 20
6676681.581
 10
25492160.1303394
 20
6676699.432
 10
25491824.9951745
 20
6676832.191
 10
25491593.492406
 20
6676925.836
 10
25491499.8179997
 20
6676963.101
  0
LWPOLYLINE
  5
2002C
  8
0
100
AcDbEntity
100
AcDbPolyline
 70
0
 90
16
 10
25492602.0693974
 20
6676645.551
 10
25492577.9809215
 20
6676643.816
 10
25492531.9269676
 20
6676642.583
 10
25492498.4355011
 20
6676643.267
 10
25492457.538542
 20
6676645.249
 10
25492421.6080779
 20
6676648.631
 10
25492385.1971143
 20
6676653.64
 10
25492343.8226557
 20
6676660.311
 10
25492304.1051954
 20
6676668.636
 10
25492263.5627359
 20
6676679.03
 10
25492255.2882442
 20
6676680.695
 10
25492216.4032831
 20
6676693.157
 10
25492163.4558361
 20
6676711.843
 10
25491837.4531621
 20
6676841.328
 10
25491593.3874061
 20
6676939.735
 10
25491499.2185003
 20
6676977.681
  0
LWPOLYLINE
  5
2002D
  8
0
100
AcDbEntity
100
AcDbPolyline
 70
0
 90
3
 10
25491839.53566
 20
6672363.083
 10
25491432.6230669
 20
6672505.421
 10
25491360.9306386
 20
6672530.033
  0
LWPOLYLINE
  5
2002E
  8
0
100
AcDbEntity
100
AcDbPolyline
 70
0
 90
3
 10
25491844.7411548
 20
6672378.23
 10
25491446.3880531
 20
6672519.153
 10
25491360.5626389
 20
6672552.794
  0
LWPOLYLINE
  5
2002F
  8
0
100
AcDbEntity
100
AcDbPolyline
 70
0
 90
3
 10
25491970.489529
 20
6672317.419
 10
25491901.8185977
 20
6672341.3
 10
25491853.552646
 20
6672358.183
  0
LWPOLYLINE
  5
20030
  8
0
100
AcDbEntity
100
AcDbPolyline
 70
0
 90
2
 10
25491973.9175256
 20
6672333.126
 10
25491858.9391406
 20
6672373.266
  0
LWPOLYLINE
  5
20031
  8
0
100
AcDbEntity
100
AcDbPolyline
 70
0
 90
16
 10
25492686.8238127
 20
6672173.823
 10
25492680.8288187
 20
6672172.218
 10
25492647.9143516
 20
6672166.164
 10
25492608.9073906
 20
6672160.929
 10
25492580.8734186
 20
6672158.932
 10
25492541.8704576
 20
6672157.354
 10
25492493.528506
 20
6672159.443
 10
25492456.9695425
 20
6672163.143
 10
25492421.4455781
 20
6672169.22
 10
25492391.3616081
 20
6672175.746
 10
25492358.0346415
 20
6672184.047
 10
25492328.2486713
 20
6672192.638
 10
25492302.5916969
 20
6672200.634
 10
25492253.8947456
 20
6672216.99
 10
25492054.0969454
 20
6672288.369
 10
25491974.482525
 20
6672316.032
  0
LWPOLYLINE
  5
20032
  8
0
100
AcDbEntity
100
AcDbPolyline
 70
0
 90
17
 10
25492686.533313
 20
6672190.254
 10
25492675.9723235
 20
6672187.662
 10
25492640.2143593
 20
6672181.611
 10
25492602.4263971
 20
6672176.781
 10
25492568.7039308
 20
6672174.384
 10
25492537.8279617
 20
6672174.015
 10
25492502.8909966
 20
6672174.87
 10
25492463.0825364
 20
6672178.98
 10
25492425.8890736
 20
6672184.555
 10
25492394.3301052
 20
6672191.083
 10
25492354.2206453
 20
6672201.457
 10
25492322.3696771
 20
6672210.641
 10
25492294.8462047
 20
6672219.717
 10
25492258.7707407
 20
6672231.906
 10
25492194.9493046
 20
6672256.968
 10
25492053.4229461
 20
6672305.374
 10
25491977.8915216
 20
6672331.744
  0
LWPOLYLINE
  5
20033
  8
0
100
AcDbEntity
100
AcDbPolyline
 70
0
 90
4
 10
25493974.5885249
 20
6681343.124
 10
25494044.3004552
 20
6681192.739
 10
25494183.6578158
 20
6680889.262
 10
25494343.1781563
 20
6680541.981
  0
LWPOLYLINE
  5
20034
  8
0
100
AcDbEntity
100
AcDbPolyline
 70
0
 90
4
 10
25493960.1855393
 20
6681336.543
 10
25494026.6374729
 20
6681192.313
 10
25494167.5628319
 20
6680884.385
 10
25494330.2401693
 20
6680536.325
  0
LWPOLYLINE
  5
20035
  8
0
100
AcDbEntity
100
AcDbPolyline
 70
0
 90
8
 10
25494417.6810818
 20
6680291.774
 10
25494401.5720979
 20
6680285.746
 10
25494330.0916694
 20
6680262.186
 10
25494294.0972054
 20
6680252.976
 10
25494213.8202857
 20
6680237.315
 10
25494164.4153351
 20
6680228.773
 10
25494095.3259042
 20
6680221.419
 10
25494044.7799547
 20
6680218.442
  0
LWPOLYLINE
  5
20036
  8
0
100
AcDbEntity
100
AcDbPolyline
 70
0
 90
10
 10
25494425.3170742
 20
6680276.574
 10
25494365.9591335
 20
6680256.44
 10
25494337.461662
 20
6680247.627
 10
25494255.511744
 20
6680226.292
 10
25494194.3103052
 20
6680214.074
 10
25494126.8498727
 20
6680205.357
 10
25494053.527946
 20
6680199.58
 10
25493975.9630235
 20
6680197.203
 10
25493857.9021416
 20
6680199.369
 10
25493746.8422527
 20
6680201.891
  0
LWPOLYLINE
  5
20037
  8
0
100
AcDbEntity
100
AcDbPolyline
 70
0
 90
5
 10
25494673.477326
 20
6680403.717
 10
25494655.458844
 20
6680393.734
 10
25494603.7958957
 20
6680371.855
 10
25494494.6560049
 20
6680320.589
 10
25494491.0475085
 20
6680319.247
  0
LWPOLYLINE
  5
20038
  8
0
100
AcDbEntity
100
AcDbPolyline
 70
0
 90
3
 10
25494931.7585677
 20
6680561.99
 10
25494729.0297705
 20
6680434.446
 10
25494720.500279
 20
6680429.739
  0
LWPOLYLINE
  5
20039
  8
0
100
AcDbEntity
100
AcDbPolyline
 70
0
 90
5
 10
25494690.482809
 20
6680393.028
 10
25494669.9873295
 20
6680381.597
 10
25494623.7278758
 20
6680358.987
 10
25494534.2369653
 20
6680320.027
 10
25494498.4430011
 20
6680303.63
  0
LWPOLYLINE
  5
2003A
  8
0
100
AcDbEntity
100
AcDbPolyline
 70
0
 90
3
 10
25494883.8391157
 20
6680509.801
 10
25494778.7267208
 20
6680442.061
 10
25494737.506262
 20
6680419.135
  0
LWPOLYLINE
  5
2003B
  8
0
100
AcDbEntity
100
AcDbPolyline
 70
0
 90
34
 10
25496927.9410716
 20
6681186.309
 10
25496900.9245986
 20
6681171.397
 10
25496849.6706498
 20
6681136.944
 10
25496813.481686
 20
6681112.05
 10
25496775.1097244
 20
6681085.651
 10
25496738.0757614
 20
6681064.963
 10
25496695.7588037
 20
6681047.886
 10
25496656.3333432
 20
6681037.116
 10
25496624.9433746
 20
6681031.913
 10
25496579.3144202
 20
6681027.926
 10
25496464.6185349
 20
6681027.053
 10
25496412.0615874
 20
6681024.806
 10
25496376.3081232
 20
6681021.892
 10
25496330.6866688
 20
6681013.45
 10
25496256.4352431
 20
6680996.1
 10
25496176.8153227
 20
6680976.52
 10
25495840.8916586
 20
6680892.707
 10
25495791.6187079
 20
6680880.745
 10
25495748.7937507
 20
6680866.136
 10
25495713.3022862
 20
6680854.451
 10
25495663.1383364
 20
6680832.521
 10
25495554.9499446
 20
6680779.298
 10
25495502.0914974
 20
6680754.565
 10
25495457.8660416
 20
6680736.289
 10
25495411.486088
 20
6680719.634
 10
25495362.9531365
 20
6680705.677
 10
25495254.5732449
 20
6680683.166
 10
25495203.3482962
 20
6680671.907
 10
25495159.1298404
 20
6680659.562
 10
25495115.4458841
 20
6680643.442
 10
25495071.2184283
 20
6680623.55
 10
25495030.7614687
 20
6680600.958
 10
25494955.3970441
 20
6680555.064
 10
25494883.3171162
 20
6680509.465
  0
LWPOLYLINE
  5
2003C
  8
0
100
AcDbEntity
100
AcDbPolyline
 70
0
 90
4
 10
25497072.9869265
 20
6681296.932
 10
25497044.508955
 20
6681285.9
 10
25497001.2239983
 20
6681262.965
 10
25496956.8230427
 20
6681234.143
  0
LWPOLYLINE
  5
2003D
  8
0
100
AcDbEntity
100
AcDbPolyline
 70
0
 90
29
 10
25496917.2570822
 20
6681203.113
 10
25496883.3651161
 20
6681178.37
 10
25496833.8201657
 20
6681145.527
 10
25496795.8182037
 20
6681119.431
 10
25496764.5542349
 20
6681100.989
 10
25496727.521272
 20
6681081.201
 10
25496679.9158196
 20
6681062.779
 10
25496642.8948566
 20
6681053.358
 10
25496602.0333975
 20
6681047.548
 10
25496466.9455326
 20
6681040.91
 10
25496422.474577
 20
6681039.231
 10
25496370.0641294
 20
6681035.314
 10
25496322.2081773
 20
6681028.217
 10
25496222.459277
 20
6681003.295
 10
25495836.8061627
 20
6680908.838
 10
25495745.2352543
 20
6680887.301
 10
25495722.1277774
 20
6680878.776
 10
25495658.470841
 20
6680852.171
 10
25495549.5804499
 20
6680797.094
 10
25495492.9470066
 20
6680770.748
 10
25495451.4180481
 20
6680753.547
 10
25495410.4315891
 20
6680739.581
 10
25495354.3501452
 20
6680724.015
 10
25495209.3032902
 20
6680692.924
 10
25495165.6238339
 20
6680680.577
 10
25495107.9178916
 20
6680659.084
 10
25495064.7689347
 20
6680639.73
 10
25495022.1544774
 20
6680616.062
 10
25494931.7585677
 20
6680561.99
  0
LWPOLYLINE
  5
2003E
  8
0
100
AcDbEntity
100
AcDbPolyline
 70
0
 90
16
 10
25497134.4103651
 20
6681780.205
 10
25497145.2823542
 20
6681656.558
 10
25497148.7583507
 20
6681599.395
 10
25497151.6193479
 20
6681542.388
 10
25497151.1183484
 20
6681495.608
 10
25497148.1853513
 20
6681427.697
 10
25497144.8433547
 20
6681389.241
 10
25497139.2938602
 20
6681342.202
 10
25497123.4308761
 20
6681245.04
 10
25497117.8978816
 20
6681211.737
 10
25497110.8753886
 20
6681142.742
 10
25497108.2538912
 20
6681101.821
 10
25497108.1893913
 20
6681048.361
 10
25497112.2753872
 20
6680992.818
 10
25497115.8508837
 20
6680945.063
 10
25497121.8338777
 20
6680845.993
  0
LWPOLYLINE
  5
2003F
  8
0
100
AcDbEntity
100
AcDbPolyline
 70
0
 90
12
 10
25497122.544877
 20
6680829.686
 10
25497124.1383754
 20
6680795.619
 10
25497124.0588754
 20
6680729.524
 10
25497121.8058777
 20
6680688.217
 10
25497116.7838827
 20
6680634.244
 10
25497109.7608897
 20
6680586.728
 10
25497107.2533922
 20
6680565.835
 10
25497099.8428997
 20
6680531.456
 10
25497090.9579085
 20
6680496.097
 10
25497080.5949189
 20
6680457.3
 10
25497066.2954332
 20
6680413.105
 10
25497049.3914501
 20
6680370.055
  0
LWPOLYLINE
  5
20040
  8
0
100
AcDbEntity
100
AcDbPolyline
 70
0
 90
17
 10
25497116.1148834
 20
6681783.752
 10
25497120.2353793
 20
6681718.441
 10
25497126.478373
 20
6681647.498
 10
25497129.0148705
 20
6681625.174
 10
25497133.7018658
 20
6681564.043
 10
25497136.9413626
 20
6681522.948
 10
25497137.6378619
 20
6681489.793
 10
25497133.8868656
 20
6681433.159
 10
25497130.1938693
 20
6681387.542
 10
25497123.456376
 20
6681334.4
 10
25497113.6118859
 20
6681273.687
 10
25497103.6188959
 20
6681213.471
 10
25497095.7414038
 20
6681129.421
 10
25497093.1429064
 20
6681053.05
 10
25497094.6484049
 20
6681009.968
 10
25497099.2424003
 20
6680945.602
 10
25497106.6678928
 20
6680842.696
  0
LWPOLYLINE
  5
20041
  8
0
100
AcDbEntity
100
AcDbPolyline
 70
0
 90
11
 10
25497107.3733921
 20
6680826.407
 10
25497108.7183908
 20
6680797.841
 10
25497107.5598919
 20
6680750.474
 10
25497105.8438937
 20
6680697.599
 10
25497101.3653981
 20
6680637.568
 10
25497095.1654043
 20
6680585.419
 10
25497082.1539173
 20
6680528.039
 10
25497069.8194297
 20
6680483.841
 10
25497060.9434386
 20
6680455.85
 10
25497048.6194509
 20
6680420.495
 10
25497038.7619607
 20
6680393.488
  0
LWPOLYLINE
  5
20042
  8
0
100
AcDbEntity
100
AcDbPolyline
 70
0
 90
6
 10
25497038.7619607
 20
6680393.488
 10
25497034.9669645
 20
6680383.357
 10
25497023.489976
 20
6680357.645
 10
25497008.6134909
 20
6680323.318
 10
25496973.8675256
 20
6680248.848
 10
25496948.2975512
 20
6680196.81
  0
LWPOLYLINE
  5
20043
  8
0
100
AcDbEntity
100
AcDbPolyline
 70
0
 90
5
 10
25497049.3914501
 20
6680370.055
 10
25497025.3734741
 20
6680314.587
 10
25496996.1780033
 20
6680254.367
 10
25496968.3210312
 20
6680194.146
 10
25496964.7165348
 20
6680186.806
  0
LWPOLYLINE
  5
20044
  8
0
100
AcDbEntity
100
AcDbPolyline
 70
0
 90
28
 10
25494833.4201661
 20
6679412.283
 10
25494842.7851567
 20
6679383.501
 10
25494852.8806466
 20
6679345.619
 10
25494908.1500914
 20
6679089.313
 10
25494941.4460581
 20
6678926.838
 10
25494956.461043
 20
6678844.015
 10
25494962.0480375
 20
6678808.893
 10
25494967.3625321
 20
6678769.75
 10
25494969.2035303
 20
6678740.53
 10
25494970.2350293
 20
6678706.753
 10
25494970.6865288
 20
6678666.171
 10
25494968.6525309
 20
6678625.957
 10
25494966.0100335
 20
6678594.159
 10
25494960.0700394
 20
6678539.381
 10
25494955.3705441
 20
6678510.777
 10
25494943.8585556
 20
6678454.672
 10
25494935.0240645
 20
6678419.616
 10
25494925.9775735
 20
6678388.188
 10
25494909.4040901
 20
6678338.665
 10
25494893.8586056
 20
6678296.02
 10
25494875.7846237
 20
6678254.264
 10
25494833.3621661
 20
6678160.488
 10
25494800.3876991
 20
6678094.931
 10
25494745.6782538
 20
6677996.46
 10
25494710.0452895
 20
6677937.775
 10
25494659.3183402
 20
6677858.597
 10
25494604.4253951
 20
6677779.345
 10
25494574.0994254
 20
6677739.445
  0
LWPOLYLINE
  5
20045
  8
0
100
AcDbEntity
100
AcDbPolyline
 70
0
 90
8
 10
25494334.7091648
 20
6680526.792
 10
25494359.8851396
 20
6680472.876
 10
25494408.8140907
 20
6680368.638
 10
25494504.3649951
 20
6680161.664
 10
25494540.6629588
 20
6680080.556
 10
25494640.5648589
 20
6679866.57
 10
25494722.6057769
 20
6679688.752
 10
25494741.0327585
 20
6679647.423
  0
LWPOLYLINE
  5
20046
  8
0
100
AcDbEntity
100
AcDbPolyline
 70
0
 90
8
 10
25494347.533652
 20
6680532.505
 10
25494372.493127
 20
6680478.207
 10
25494475.8830236
 20
6680252.754
 10
25494507.492492
 20
6680183.516
 10
25494551.6604478
 20
6680088.974
 10
25494653.7088458
 20
6679868.673
 10
25494721.9197776
 20
6679717.584
 10
25494752.9677465
 20
6679653.315
  0
LWPOLYLINE
  5
20047
  8
0
100
AcDbEntity
100
AcDbPolyline
 70
0
 90
5
 10
25494757.543742
 20
6679643.847
 10
25494768.8852306
 20
6679620.507
 10
25494795.7372038
 20
6679559.66
 10
25494816.0891834
 20
6679507.725
 10
25494826.3036732
 20
6679478.1
  0
LWPOLYLINE
  5
20048
  8
0
100
AcDbEntity
100
AcDbPolyline
 70
0
 90
4
 10
25494745.3792541
 20
6679637.726
 10
25494783.4242161
 20
6679552.48
 10
25494804.547195
 20
6679499.811
 10
25494813.6631858
 20
6679472.541
  0
LWPOLYLINE
  5
20049
  8
0
100
AcDbEntity
100
AcDbPolyline
 70
0
 90
26
 10
25496961.0125385
 20
6680179.263
 10
25496936.7765627
 20
6680129.577
 10
25496925.482574
 20
6680103.168
 10
25496911.8005877
 20
6680067.119
 10
25496897.1996023
 20
6680022.887
 10
25496886.2481133
 20
6679988.956
 10
25496881.9861175
 20
6679973.201
 10
25496875.5866239
 20
6679943.81
 10
25496867.1406324
 20
6679900.408
 10
25496862.0786374
 20
6679866.845
 10
25496856.6501429
 20
6679823.388
 10
25496854.474145
 20
6679787.556
 10
25496852.7241468
 20
6679751.296
 10
25496853.1061464
 20
6679714.181
 10
25496854.2371453
 20
6679683.533
 10
25496862.2631372
 20
6679609.2
 10
25496869.6841298
 20
6679562.169
 10
25496878.1691213
 20
6679519.478
 10
25496888.494111
 20
6679469.464
 10
25496913.7300858
 20
6679366.905
 10
25496920.3305792
 20
6679330.431
 10
25496939.6475599
 20
6679233.422
 10
25496947.4200521
 20
6679185.608
 10
25496952.7300468
 20
6679146.039
 10
25496957.2170423
 20
6679107.707
 10
25496961.3095382
 20
6679070.401
  0
LWPOLYLINE
  5
2004A
  8
0
100
AcDbEntity
100
AcDbPolyline
 70
0
 90
27
 10
25496942.8595566
 20
6680185.81
 10
25496920.7165788
 20
6680136.291
 10
25496905.2695942
 20
6680095.805
 10
25496894.525105
 20
6680068.703
 10
25496881.9746175
 20
6680033.515
 10
25496869.9626295
 20
6679992.988
 10
25496860.9356386
 20
6679947.473
 10
25496853.4111461
 20
6679901.71
 10
25496850.2006493
 20
6679880.604
 10
25496846.2031533
 20
6679853.384
 10
25496842.1851573
 20
6679809.512
 10
25496839.45566
 20
6679770.877
 10
25496840.7351588
 20
6679714.623
 10
25496841.550158
 20
6679682.626
 10
25496843.9796555
 20
6679640.216
 10
25496850.1866493
 20
6679586.49
 10
25496855.3301442
 20
6679555.126
 10
25496863.460636
 20
6679513.941
 10
25496873.7426258
 20
6679469.706
 10
25496895.1916043
 20
6679370.2
 10
25496903.5835959
 20
6679331.498
 10
25496911.5675879
 20
6679293.666
 10
25496923.7200758
 20
6679222.26
 10
25496926.9000726
 20
6679200.984
 10
25496935.4225641
 20
6679146.884
 10
25496940.7230588
 20
6679099.896
 10
25496944.1400554
 20
6679066.187
  0
LWPOLYLINE
  5
2004B
  8
0
100
AcDbEntity
100
AcDbPolyline
 70
0
 90
5
 10
25496961.7565377
 20
6679066.392
 10
25496964.3175352
 20
6679042.917
 10
25496970.7730287
 20
6678956.318
 10
25496976.9285226
 20
6678847.271
 10
25496977.7750217
 20
6678807.578
  0
LWPOLYLINE
  5
2004C
  8
0
100
AcDbEntity
100
AcDbPolyline
 70
0
 90
6
 10
25496944.530555
 20
6679062.234
 10
25496948.9805505
 20
6679017.571
 10
25496954.5620449
 20
6678931.41
 10
25496957.1155424
 20
6678872.805
 10
25496959.3020402
 20
6678848.329
 10
25496961.0055385
 20
6678803.716
  0
LWPOLYLINE
  5
2004D
  8
0
100
AcDbEntity
100
AcDbPolyline
 70
0
 90
5
 10
25496961.8450377
 20
6678782.023
 10
25496962.6005369
 20
6678761.982
 10
25496963.2915362
 20
6678663.152
 10
25496962.0155375
 20
6678612.524
 10
25496960.8625386
 20
6678597.897
  0
LWPOLYLINE
  5
2004E
  8
0
100
AcDbEntity
100
AcDbPolyline
 70
0
 90
4
 10
25496978.3035212
 20
6678785.947
 10
25496978.5670209
 20
6678772.608
 10
25496979.8710196
 20
6678640.45
 10
25496978.7900207
 20
6678613.07
  0
LWPOLYLINE
  5
2004F
  8
0
100
AcDbEntity
100
AcDbPolyline
 70
0
 90
12
 10
25496970.465029
 20
6678515.794
 10
25496967.1425324
 20
6678497.082
 10
25496956.538043
 20
6678435.934
 10
25496939.9315596
 20
6678376.967
 10
25496912.3375872
 20
6678296.665
 10
25496890.7006088
 20
6678237.923
 10
25496868.514631
 20
6678171.093
 10
25496855.8111437
 20
6678122.944
 10
25496850.4431491
 20
6678094.679
 10
25496846.9446526
 20
6678068.813
 10
25496844.7776547
 20
6678041.078
 10
25496844.7086548
 20
6677998.745
  0
LWPOLYLINE
  5
20050
  8
0
100
AcDbEntity
100
AcDbPolyline
 70
0
 90
12
 10
25496950.2770492
 20
6678498.635
 10
25496945.2330543
 20
6678465.92
 10
25496936.6860628
 20
6678431.908
 10
25496922.6885768
 20
6678385.614
 10
25496898.3386012
 20
6678312.318
 10
25496849.6391499
 20
6678166.803
 10
25496838.7416608
 20
6678122.698
 10
25496834.4446651
 20
6678098.166
 10
25496830.9471686
 20
6678073.099
 10
25496828.515171
 20
6678046.698
 10
25496827.9546715
 20
6678024.295
 10
25496828.478671
 20
6677998.088
  0
LWPOLYLINE
  5
20051
  8
0
100
AcDbEntity
100
AcDbPolyline
 70
0
 90
5
 10
25496828.8551706
 20
6677984.706
 10
25496830.529169
 20
6677947.213
 10
25496834.2106653
 20
6677903.735
 10
25496840.0416595
 20
6677873.057
 10
25496843.3051562
 20
6677852.238
  0
LWPOLYLINE
  5
20052
  8
0
100
AcDbEntity
100
AcDbPolyline
 70
0
 90
5
 10
25496845.3036542
 20
6677984.852
 10
25496845.7636537
 20
6677973.866
 10
25496850.7851487
 20
6677935.454
 10
25496856.8781426
 20
6677901.307
 10
25496863.5961359
 20
6677872.831
  0
LWPOLYLINE
  5
20053
  8
0
100
AcDbEntity
100
AcDbPolyline
 70
0
 90
40
 10
25494846.485153
 20
6679417.883
 10
25494849.5651499
 20
6679408.563
 10
25494854.8416447
 20
6679385.897
 10
25494866.7371328
 20
6679336.516
 10
25494919.0490805
 20
6679095.923
 10
25494953.1795463
 20
6678936.034
 10
25494959.2170403
 20
6678906.738
 10
25494973.6805258
 20
6678816.938
 10
25494979.0145205
 20
6678778.113
 10
25494982.2850172
 20
6678742.601
 10
25494983.9680155
 20
6678697.802
 10
25494983.0280165
 20
6678638.075
 10
25494978.6265209
 20
6678589.211
 10
25494972.1220274
 20
6678539.366
 10
25494966.0660334
 20
6678496.646
 10
25494958.8605406
 20
6678462.206
 10
25494947.2300523
 20
6678420.686
 10
25494935.2570642
 20
6678379.919
 10
25494915.3110842
 20
6678315.692
 10
25494904.9600945
 20
6678290.934
 10
25494892.3851071
 20
6678260.678
 10
25494845.2346543
 20
6678159.306
 10
25494815.5746839
 20
6678098.611
 10
25494757.3517422
 20
6677991.828
 10
25494721.2372783
 20
6677931.041
 10
25494672.3178272
 20
6677856.166
 10
25494616.6793828
 20
6677774.315
 10
25494556.3934431
 20
6677690.055
 10
25494523.2024763
 20
6677641
 10
25494499.9964995
 20
6677605.461
 10
25494488.3995111
 20
6677585.306
 10
25494472.8250267
 20
6677555.343
 10
25494462.0925374
 20
6677531.94
 10
25494452.474547
 20
6677507.867
 10
25494442.5555569
 20
6677475.055
 10
25494436.1975633
 20
6677448.516
 10
25494429.0905704
 20
6677412.153
 10
25494426.6010729
 20
6677369.73
 10
25494424.3440752
 20
6677335.289
 10
25494422.4175771
 20
6677280.813
  0
LWPOLYLINE
  5
20054
  8
0
100
AcDbEntity
100
AcDbPolyline
 70
0
 90
16
 10
25494574.0994254
 20
6677739.445
 10
25494541.7664577
 20
6677694.688
 10
25494506.9864925
 20
6677643.809
 10
25494488.1035114
 20
6677614.403
 10
25494474.8485247
 20
6677590.282
 10
25494459.8975396
 20
6677561.157
 10
25494449.3870501
 20
6677536.862
 10
25494439.0975604
 20
6677511.005
 10
25494430.0205695
 20
6677482.207
 10
25494422.6880768
 20
6677454.371
 10
25494416.9415826
 20
6677420.989
 10
25494412.3825871
 20
6677396.676
 10
25494410.1225894
 20
6677376.769
 10
25494408.5665909
 20
6677349.999
 10
25494408.0705914
 20
6677299.72
 10
25494407.1995923
 20
6677285.148
  0
LWPOLYLINE
  5
20055
  8
0
100
AcDbEntity
100
AcDbPolyline
 70
0
 90
17
 10
25495019.0499805
 20
6672560.306
 10
25494993.7235058
 20
6672578.895
 10
25494948.456551
 20
6672607.067
 10
25494920.3565791
 20
6672621.55
 10
25494891.8636076
 20
6672634.081
 10
25494861.0256385
 20
6672645.443
 10
25494828.6256709
 20
6672656.417
 10
25494804.0301955
 20
6672662.695
 10
25494773.1877263
 20
6672669.761
 10
25494741.9542575
 20
6672676.828
 10
25494711.1092884
 20
6672681.942
 10
25494679.8718196
 20
6672685.494
 10
25494654.8803446
 20
6672687.087
 10
25494634.9648645
 20
6672688.282
 10
25494608.0188915
 20
6672688.315
 10
25494568.1844313
 20
6672687.191
 10
25494542.1859573
 20
6672685.898
  0
LWPOLYLINE
  5
20056
  8
0
100
AcDbEntity
100
AcDbPolyline
 70
0
 90
16
 10
25495037.8904616
 20
6672567.87
 10
25495020.7204788
 20
6672582.212
 10
25494993.5610059
 20
6672602.439
 10
25494959.50904
 20
6672622.325
 10
25494925.8350737
 20
6672638.381
 10
25494878.7641207
 20
6672656.89
 10
25494837.537162
 20
6672671.706
 10
25494786.524213
 20
6672684.506
 10
25494758.7647407
 20
6672691.648
 10
25494727.1372724
 20
6672695.982
 10
25494697.0708024
 20
6672699.142
 10
25494665.8313337
 20
6672701.132
 10
25494635.3723641
 20
6672702.34
 10
25494602.9588965
 20
6672702.379
 10
25494571.3249282
 20
6672700.855
 10
25494546.1079534
 20
6672699.013
  0
LWPOLYLINE
  5
20057
  8
0
100
AcDbEntity
100
AcDbPolyline
 70
0
 90
17
 10
25498245.6027539
 20
6683628.066
 10
25498200.7757987
 20
6683545.448
 10
25498145.9328536
 20
6683448.69
 10
25498073.0709264
 20
6683325.547
 10
25498018.6239809
 20
6683239.886
 10
25497978.6400209
 20
6683178.395
 10
25497947.0775524
 20
6683131.879
 10
25497907.0405925
 20
6683076.908
 10
25497870.3041292
 20
6683029.458
 10
25497802.2661972
 20
6682951.453
 10
25497759.50224
 20
6682906.407
 10
25497732.9417666
 20
6682879.381
 10
25497694.9658045
 20
6682844.94
 10
25497645.8408537
 20
6682804.677
 10
25497603.8883956
 20
6682772.629
 10
25497456.2655432
 20
6682666.429
 10
25497441.3070582
 20
6682654.562
  0
LWPOLYLINE
  5
20058
  8
0
100
AcDbEntity
100
AcDbPolyline
 70
0
 90
17
 10
25498271.3377282
 20
6683609.5
 10
25498238.6622608
 20
6683544.255
 10
25498156.5898429
 20
6683399.691
 10
25498111.7223878
 20
6683324.352
 10
25498032.3519671
 20
6683198.92
 10
25497995.0565044
 20
6683143.107
 10
25497956.9035426
 20
6683090.956
 10
25497932.4105671
 20
6683057.598
 10
25497893.5926059
 20
6683010.235
 10
25497827.9886715
 20
6682943.464
 10
25497785.7602137
 20
6682902.662
 10
25497754.6892448
 20
6682874.845
 10
25497713.7952857
 20
6682840.408
 10
25497654.5833449
 20
6682795.116
 10
25497609.4448901
 20
6682760.95
 10
25497474.513525
 20
6682663.523
 10
25497460.0045395
 20
6682651.829
  0
LWPOLYLINE
  5
20059
  8
0
100
AcDbEntity
100
AcDbPolyline
 70
0
 90
6
 10
25497443.9080556
 20
6682638.658
 10
25497409.8685896
 20
6682611.074
 10
25497386.3226132
 20
6682590.416
 10
25497370.3661291
 20
6682574.952
 10
25497350.7616487
 20
6682554.94
 10
25497330.6456689
 20
6682530.834
  0
LWPOLYLINE
  5
2005A
  8
0
100
AcDbEntity
100
AcDbPolyline
 70
0
 90
23
 10
25497314.5741849
 20
6682512.717
 10
25497291.7332078
 20
6682485.518
 10
25497274.0087255
 20
6682461.409
 10
25497255.9552435
 20
6682433.958
 10
25497238.548761
 20
6682404.064
 10
25497223.7202758
 20
6682377.704
 10
25497211.1457884
 20
6682353.593
 10
25497194.6968048
 20
6682317.264
 10
25497185.0173145
 20
6682293.15
 10
25497174.3658251
 20
6682262.925
 10
25497163.3813361
 20
6682223.372
 10
25497154.6828448
 20
6682188.775
 10
25497148.7483508
 20
6682154.247
 10
25497141.3308582
 20
6682110.741
 10
25497137.5998619
 20
6682070.684
 10
25497133.6618658
 20
6682030.806
 10
25497132.3518672
 20
6681994.021
 10
25497130.8278687
 20
6681951.889
 10
25497129.3093702
 20
6681913.902
 10
25497130.7273688
 20
6681868.313
 10
25497132.1483674
 20
6681824.796
 10
25497132.8523666
 20
6681797.858
 10
25497134.0523654
 20
6681784.404
  0
LWPOLYLINE
  5
2005B
  8
0
100
AcDbEntity
100
AcDbPolyline
 70
0
 90
5
 10
25497424.0930754
 20
6682640.734
 10
25497410.7530888
 20
6682630.232
 10
25497385.1076144
 20
6682607.014
 10
25497344.9696545
 20
6682568.965
 10
25497317.2676822
 20
6682538.263
  0
LWPOLYLINE
  5
2005C
  8
0
100
AcDbEntity
100
AcDbPolyline
 70
0
 90
20
 10
25497299.8976996
 20
6682517.556
 10
25497278.2262213
 20
6682490.36
 10
25497259.8572396
 20
6682465.287
 10
25497244.0617554
 20
6682441.05
 10
25497225.3672741
 20
6682409.87
 10
25497203.1212964
 20
6682368.079
 10
25497187.3178122
 20
6682333.678
 10
25497174.7358248
 20
6682303.456
 10
25497159.2478403
 20
6682263.587
 10
25497147.3668521
 20
6682230.227
 10
25497136.2668632
 20
6682187.416
 10
25497128.1208714
 20
6682150.818
 10
25497122.1803773
 20
6682110.764
 10
25497116.9643825
 20
6682061.039
 10
25497113.9468856
 20
6682001.641
 10
25497112.4158871
 20
6681953.293
 10
25497110.8953886
 20
6681913.924
 10
25497111.5978879
 20
6681885.604
 10
25497112.2843872
 20
6681844.16
 10
25497115.8608836
 20
6681787.951
  0
LWPOLYLINE
  5
2005D
  8
0
100
AcDbEntity
100
AcDbPolyline
 70
0
 90
6
 10
25497413.9525855
 20
6681349.84
 10
25497376.2286233
 20
6681350.405
 10
25497338.9281606
 20
6681350.707
 10
25497294.3352052
 20
6681347.404
 10
25497205.0327945
 20
6681333.317
 10
25497178.3953211
 20
6681328.098
  0
LWPOLYLINE
  5
2005E
  8
0
100
AcDbEntity
100
AcDbPolyline
 70
0
 90
6
 10
25497872.455127
 20
6681321.681
 10
25497691.469308
 20
6681325.37
 10
25497597.4129021
 20
6681333.208
 10
25497489.2345103
 20
6681346.479
 10
25497460.7655387
 20
6681349.141
 10
25497422.479077
 20
6681349.701
  0
LWPOLYLINE
  5
2005F
  8
0
100
AcDbEntity
100
AcDbPolyline
 70
0
 90
6
 10
25497872.3461272
 20
6681308.007
 10
25497689.47031
 20
6681312.48
 10
25497579.4399201
 20
6681321.841
 10
25497505.494494
 20
6681328.615
 10
25497450.2275493
 20
6681334.09
 10
25497428.1880713
 20
6681334.395
  0
LWPOLYLINE
  5
20060
  8
0
100
AcDbEntity
100
AcDbPolyline
 70
0
 90
6
 10
25497419.9510796
 20
6681334.469
 10
25497406.0090935
 20
6681334.594
 10
25497352.6561468
 20
6681332.855
 10
25497309.8726896
 20
6681327.498
 10
25497240.1647593
 20
6681314.962
 10
25497173.6923258
 20
6681298.401
  0
LWPOLYLINE
  5
20061
  8
0
100
AcDbEntity
100
AcDbPolyline
 70
0
 90
8
 10
25498433.6685658
 20
6681219.115
 10
25498384.5826149
 20
6681238.752
 10
25498293.3792061
 20
6681268.614
 10
25498235.3827641
 20
6681284.551
 10
25498177.8773216
 20
6681297.017
 10
25498093.5949059
 20
6681309.019
 10
25498032.6114669
 20
6681315.539
 10
25497872.455127
 20
6681321.681
  0
LWPOLYLINE
  5
20062
  8
0
100
AcDbEntity
100
AcDbPolyline
 70
0
 90
11
 10
25498427.6290719
 20
6681206.259
 10
25498413.8065857
 20
6681212.436
 10
25498365.2356343
 20
6681231.834
 10
25498314.1821853
 20
6681249.25
 10
25498263.1262364
 20
6681264.187
 10
25498206.1187934
 20
6681278.14
 10
25498153.5693459
 20
6681288.121
 10
25498099.5299
 20
6681296.12
 10
25498052.9234466
 20
6681300.142
 10
25497945.3285542
 20
6681306.222
 10
25497872.3461272
 20
6681308.007
  0
LWPOLYLINE
  5
20063
  8
0
100
AcDbEntity
100
AcDbPolyline
 70
0
 90
9
 10
25499840.6271589
 20
6679248.84
 10
25499733.9857655
 20
6679151.538
 10
25499677.501822
 20
6679105.657
 10
25499638.7743607
 20
6679077.892
 10
25499602.8713966
 20
6679052.945
 10
25499565.513434
 20
6679030.121
 10
25499512.9529865
 20
6679000.025
 10
25499460.3965391
 20
6678972.979
 10
25499390.1571093
 20
6678940.635
  0
LWPOLYLINE
  5
20064
  8
0
100
AcDbEntity
100
AcDbPolyline
 70
0
 90
10
 10
25499855.2296443
 20
6679235.606
 10
25499786.2187133
 20
6679170.629
 10
25499737.9877615
 20
6679127.753
 10
25499689.1718103
 20
6679089.924
 10
25499652.461347
 20
6679063.769
 10
25499605.6683938
 20
6679032.386
 10
25499561.7564377
 20
6679005.727
 10
25499516.9959825
 20
6678980.366
 10
25499468.9830305
 20
6678955.419
 10
25499401.4385981
 20
6678924.322
  0
LWPOLYLINE
  5
20065
  8
0
100
AcDbEntity
100
AcDbPolyline
 70
0
 90
10
 10
25499354.6226449
 20
6678924.337
 10
25499290.1852093
 20
6678894.805
 10
25499165.9358336
 20
6678834.493
 10
25499116.6573828
 20
6678806.76
 10
25499072.7079268
 20
6678778.551
 10
25499032.9719665
 20
6678750.176
 10
25498985.5565139
 20
6678713.238
 10
25498953.491046
 20
6678685.756
 10
25498922.7775767
 20
6678656.468
 10
25498918.8355807
 20
6678652.639
  0
LWPOLYLINE
  5
20066
  8
0
100
AcDbEntity
100
AcDbPolyline
 70
0
 90
10
 10
25499365.9941335
 20
6678908.064
 10
25499320.9041786
 20
6678887.243
 10
25499180.0568194
 20
6678818.874
 10
25499132.7293668
 20
6678792.114
 10
25499088.482411
 20
6678764.997
 10
25499039.7154598
 20
6678730.317
 10
25499001.3319982
 20
6678701.038
 10
25498963.8465357
 20
6678668.149
 10
25498929.52007
 20
6678636.158
 10
25498914.9360846
 20
6678621.354
  0
LWPOLYLINE
  5
20067
  8
0
100
AcDbEntity
100
AcDbPolyline
 70
0
 90
3
 10
25498910.530589
 20
6678616.848
 10
25498896.3721031
 20
6678602.52
 10
25498886.8441127
 20
6678592.124
  0
LWPOLYLINE
  5
20068
  8
0
100
AcDbEntity
100
AcDbPolyline
 70
0
 90
2
 10
25498914.496085
 20
6678648.373
 10
25498891.9296076
 20
6678626.169
  0
LWPOLYLINE
  5
20069
  8
0
100
AcDbEntity
100
AcDbPolyline
 70
0
 90
3
 10
25498818.2086813
 20
6678548.178
 10
25498797.5652019
 20
6678525.274
 10
25498781.0197185
 20
6678504.196
  0
LWPOLYLINE
  5
2006A
  8
0
100
AcDbEntity
100
AcDbPolyline
 70
0
 90
2
 10
25498814.4266851
 20
6678511.979
 10
25498796.6672028
 20
6678491.745
  0
LWPOLYLINE
  5
2006B
  8
0
100
AcDbEntity
100
AcDbPolyline
 70
0
 90
2
 10
25498719.0742804
 20
6674938.529
 10
25498685.1263144
 20
6674946.278
  0
LWPOLYLINE
  5
2006C
  8
0
100
AcDbEntity
100
AcDbPolyline
 70
0
 90
2
 10
25498716.8992826
 20
6674926.084
 10
25498679.8683196
 20
6674934.343
  0
LWPOLYLINE
  5
2006D
  8
0
100
AcDbEntity
100
AcDbPolyline
 70
0
 90
22
 10
25500071.497928
 20
6674946.05
 10
25500044.7519547
 20
6674926.947
 10
25499995.8365037
 20
6674896.135
 10
25499966.6940328
 20
6674879.275
 10
25499936.3190632
 20
6674863.619
 10
25499895.7031038
 20
6674845.576
 10
25499854.7796447
 20
6674829.161
 10
25499811.2856882
 20
6674814.292
 10
25499772.9407266
 20
6674803.019
 10
25499742.3167572
 20
6674794.309
 10
25499703.6982958
 20
6674785.178
 10
25499671.4413281
 20
6674779.636
 10
25499639.3508601
 20
6674774.775
 10
25499583.499916
 20
6674769.453
 10
25499536.9774625
 20
6674769.073
 10
25499517.0189825
 20
6674769.838
 10
25499480.9610185
 20
6674772.476
 10
25499441.0945584
 20
6674778.478
 10
25499431.8910676
 20
6674780.078
 10
25499399.5520999
 20
6674785.702
 10
25499365.9391336
 20
6674792.916
 10
25499299.7761997
 20
6674807.728
  0
LWPOLYLINE
  5
2006E
  8
0
100
AcDbEntity
100
AcDbPolyline
 70
0
 90
22
 10
25500074.4304251
 20
6674931.375
 10
25500062.498937
 20
6674923.581
 10
25500019.7604797
 20
6674895.591
 10
25499977.2830222
 20
6674870.431
 10
25499947.4200521
 20
6674852.717
 10
25499912.4150871
 20
6674837.581
 10
25499871.7491277
 20
6674821.422
 10
25499819.50468
 20
6674803.477
 10
25499774.7257248
 20
6674789.897
 10
25499741.2717582
 20
6674780.933
 10
25499699.3598001
 20
6674772.078
 10
25499667.1028324
 20
6674766.536
 10
25499634.8513646
 20
6674762.671
 10
25499579.0004205
 20
6674757.349
 10
25499550.6384489
 20
6674756.772
 10
25499532.477967
 20
6674756.969
 10
25499512.519487
 20
6674757.734
 10
25499476.461023
 20
6674760.372
 10
25499436.5950629
 20
6674766.373
 10
25499395.5621039
 20
6674773.509
 10
25499361.4396381
 20
6674780.812
 10
25499299.5811999
 20
6674794.662
  0
LWPOLYLINE
  5
2006F
  8
0
100
AcDbEntity
100
AcDbPolyline
 70
0
 90
12
 10
25500374.8116247
 20
6675061.195
 10
25500343.2976562
 20
6675055.177
 10
25500314.7581847
 20
6675047.275
 10
25500292.6262069
 20
6675040.613
 10
25500262.2577372
 20
6675030.359
 10
25500234.2037653
 20
6675019.845
 10
25500206.1477933
 20
6675007.016
 10
25500181.1793183
 20
6674994.955
 10
25500157.7553417
 20
6674983.407
 10
25500132.0118675
 20
6674968.774
 10
25500103.4343961
 20
6674950.286
 10
25500080.2559192
 20
6674935.195
  0
LWPOLYLINE
  5
20070
  8
0
100
AcDbEntity
100
AcDbPolyline
 70
0
 90
11
 10
25500372.6051269
 20
6675074.511
 10
25500367.2696322
 20
6675073.452
 10
25500336.1331634
 20
6675066.286
 10
25500301.9071976
 20
6675057.066
 10
25500269.9947295
 20
6675046.557
 10
25500232.9337666
 20
6675033.224
 10
25500196.1273034
 20
6675017.319
 10
25500160.8628386
 20
6675000.382
 10
25500131.2598682
 20
6674984.983
 10
25500108.0898914
 20
6674970.861
 10
25500077.4034221
 20
6674950.269
  0
LWPOLYLINE
  5
20071
  8
0
100
AcDbEntity
100
AcDbPolyline
 70
0
 90
13
 10
25501103.7278958
 20
6685697.383
 10
25501077.8359217
 20
6685708.552
 10
25501052.1169474
 20
6685720.648
 10
25500893.5631059
 20
6685809.141
 10
25500804.544695
 20
6685858.605
 10
25500763.8032357
 20
6685880.858
 10
25500723.3122762
 20
6685902.59
 10
25500691.8588076
 20
6685917.809
 10
25500651.0278485
 20
6685935.594
 10
25500607.3328922
 20
6685953.042
 10
25500545.3669541
 20
6685974.535
 10
25500497.5580019
 20
6685988.391
 10
25500440.1040594
 20
6686003.718
  0
LWPOLYLINE
  5
20072
  8
0
100
AcDbEntity
100
AcDbPolyline
 70
0
 90
11
 10
25501113.1663863
 20
6685720.566
 10
25501065.7569337
 20
6685740.718
 10
25501000.480499
 20
6685773.778
 10
25500893.2271063
 20
6685831.734
 10
25500811.1196884
 20
6685877.889
 10
25500779.8357197
 20
6685894.671
 10
25500725.6352739
 20
6685924.584
 10
25500680.1603193
 20
6685945.751
 10
25500600.3593991
 20
6685976.941
 10
25500533.8964656
 20
6685999.799
 10
25500449.6150499
 20
6686022.682
  0
LWPOLYLINE
  5
20073
  8
0
100
AcDbEntity
100
AcDbPolyline
 70
0
 90
5
 10
25502341.3351582
 20
6685425.461
 10
25502300.1846993
 20
6685437.372
 10
25502262.1707373
 20
6685446.488
 10
25502224.0187755
 20
6685453.151
 10
25502195.0798044
 20
6685457.783
  0
LWPOLYLINE
  5
20074
  8
0
100
AcDbEntity
100
AcDbPolyline
 70
0
 90
5
 10
25502346.8436527
 20
6685405.375
 10
25502271.9162276
 20
6685427.987
 10
25502248.2007513
 20
6685433.248
 10
25502220.2957792
 20
6685437.926
 10
25502196.0913034
 20
6685441.805
  0
LWPOLYLINE
  5
20075
  8
0
100
AcDbEntity
100
AcDbPolyline
 70
0
 90
13
 10
25501995.2910042
 20
6685474.283
 10
25501989.0125105
 20
6685475.249
 10
25501898.3121012
 20
6685490.041
 10
25501803.2991962
 20
6685507.957
 10
25501733.0487664
 20
6685523.281
 10
25501594.8734046
 20
6685557.042
 10
25501465.0035345
 20
6685586.29
 10
25501356.474643
 20
6685612.658
 10
25501295.4017041
 20
6685629.022
 10
25501250.9862485
 20
6685641.585
 10
25501194.2283053
 20
6685660.566
 10
25501142.3558571
 20
6685679.559
 10
25501120.2588792
 20
6685689.777
  0
LWPOLYLINE
  5
20076
  8
0
100
AcDbEntity
100
AcDbPolyline
 70
0
 90
14
 10
25501999.7154998
 20
6685489.075
 10
25501971.2590282
 20
6685493.66
 10
25501876.3986231
 20
6685512.822
 10
25501811.5731879
 20
6685524.033
 10
25501741.531758
 20
6685538.582
 10
25501646.529853
 20
6685562.329
 10
25501567.9304316
 20
6685581.561
 10
25501376.3316232
 20
6685630.594
 10
25501325.9746735
 20
6685644.624
 10
25501279.6002199
 20
6685657.826
 10
25501237.4457621
 20
6685673.204
 10
25501192.0768074
 20
6685688.927
 10
25501145.485354
 20
6685706.791
 10
25501129.9698695
 20
6685713.461
  0
LWPOLYLINE
  5
20077
  8
0
100
AcDbEntity
100
AcDbPolyline
 70
0
 90
43
 10
25501605.0503944
 20
6680967.337
 10
25501494.3650051
 20
6680990.979
 10
25501435.1065644
 20
6681002.763
 10
25501370.5851289
 20
6681012.886
 10
25501321.6171779
 20
6681014.504
 10
25501273.3757261
 20
6681015.567
 10
25501220.1067794
 20
6681014.626
 10
25501153.7673457
 20
6681010.183
 10
25501013.544986
 20
6680996.281
 10
25500927.6005719
 20
6680986.334
 10
25500890.6711088
 20
6680982.831
 10
25500847.8686516
 20
6680978.791
 10
25500752.8237467
 20
6680971.353
 10
25500636.8128627
 20
6680964.425
 10
25500547.484452
 20
6680960.254
 10
25500495.9415036
 20
6680959.427
 10
25500401.2420983
 20
6680959.739
 10
25500254.1032454
 20
6680965.634
 10
25500074.7579247
 20
6680980.836
 10
25499967.0565324
 20
6680989.395
 10
25499796.6157029
 20
6681010.205
 10
25499580.8759186
 20
6681039.383
 10
25499518.0584814
 20
6681047.337
 10
25499476.526523
 20
6681050.285
 10
25499431.3700681
 20
6681051.305
 10
25499393.2141063
 20
6681050.385
 10
25499356.0216435
 20
6681047.29
 10
25499316.4111831
 20
6681041.542
 10
25499279.45472
 20
6681034.342
 10
25499250.9517485
 20
6681027.856
 10
25499211.5777879
 20
6681017.761
 10
25499161.539338
 20
6681008.29
 10
25499115.2858842
 20
6681001.686
 10
25499066.8154327
 20
6680997.675
 10
25499024.6374749
 20
6680996.245
 10
25498984.6830148
 20
6680998.143
 10
25498933.2635662
 20
6681003.015
 10
25498890.8421087
 20
6681010.498
 10
25498847.473652
 20
6681021.396
 10
25498807.9871915
 20
6681033.897
 10
25498766.2592332
 20
6681049.409
 10
25498694.1458054
 20
6681084.027
 10
25498525.509474
 20
6681174.816
  0
LWPOLYLINE
  5
20078
  8
0
100
AcDbEntity
100
AcDbPolyline
 70
0
 90
44
 10
25501602.0468974
 20
6680954.339
 10
25501478.1765213
 20
6680980.111
 10
25501418.3505811
 20
6680991.216
 10
25501362.6536368
 20
6680998.893
 10
25501319.52918
 20
6681002.035
 10
25501238.1807613
 20
6681000.534
 10
25501173.3348262
 20
6680996.993
 10
25501148.1113514
 20
6680994.997
 10
25501042.6789568
 20
6680985.693
 10
25500948.6940508
 20
6680975.755
 10
25500868.3106312
 20
6680968.067
 10
25500755.3257442
 20
6680958.448
 10
25500642.1528573
 20
6680951.819
 10
25500541.544458
 20
6680947.228
 10
25500489.4090101
 20
6680946.402
 10
25500403.3990961
 20
6680946.703
 10
25500252.2147473
 20
6680952.992
 10
25500140.2968592
 20
6680960.151
 10
25500027.9139716
 20
6680970.121
 10
25499966.5730329
 20
6680976.751
 10
25499798.9427006
 20
6680998.027
 10
25499667.484832
 20
6681015.395
 10
25499579.9234196
 20
6681026.272
 10
25499531.6944678
 20
6681031.949
 10
25499475.0335245
 20
6681036.232
 10
25499449.2775502
 20
6681037.2
 10
25499404.3055952
 20
6681036.365
 10
25499371.9431276
 20
6681033.506
 10
25499339.8196597
 20
6681028.715
 10
25499299.4822
 20
6681021.036
 10
25499234.9882645
 20
6681006.624
 10
25499200.3762991
 20
6681000.104
 10
25499139.3203602
 20
6680990.558
 10
25499096.3979031
 20
6680985.43
 10
25499053.478946
 20
6680982.892
 10
25498983.5565159
 20
6680984.086
 10
25498920.3020792
 20
6680992.301
 10
25498880.3341192
 20
6681000.015
 10
25498839.0646604
 20
6681010.91
 10
25498796.1222034
 20
6681024.634
 10
25498753.3647461
 20
6681041.693
 10
25498707.519792
 20
6681062.364
 10
25498659.1008404
 20
6681085.615
 10
25498519.0604804
 20
6681161.7
  0
LWPOLYLINE
  5
20079
  8
0
100
AcDbEntity
100
AcDbPolyline
 70
0
 90
6
 10
25501938.3805611
 20
6680878.273
 10
25501907.5740919
 20
6680888.992
 10
25501829.1791703
 20
6680914.079
 10
25501784.8232147
 20
6680925.617
 10
25501659.49934
 20
6680955.63
 10
25501630.2168693
 20
6680961.94
  0
LWPOLYLINE
  5
2007A
  8
0
100
AcDbEntity
100
AcDbPolyline
 70
0
 90
10
 10
25502438.457061
 20
6680536.475
 10
25502392.1776073
 20
6680592.807
 10
25502374.8451247
 20
6680612.3
 10
25502306.7701927
 20
6680678.42
 10
25502265.7472337
 20
6680710.641
 10
25502229.7977697
 20
6680737.777
 10
25502161.6938378
 20
6680779.767
 10
25502091.0469084
 20
6680818.798
 10
25502017.8404817
 20
6680850.509
 10
25501944.4325551
 20
6680876.169
  0
LWPOLYLINE
  5
2007B
  8
0
100
AcDbEntity
100
AcDbPolyline
 70
0
 90
23
 10
25503009.8804896
 20
6679725.792
 10
25502989.2645102
 20
6679736.702
 10
25502966.2975332
 20
6679750.596
 10
25502939.5450599
 20
6679767.693
 10
25502916.9095826
 20
6679783.608
 10
25502877.2301223
 20
6679815.724
 10
25502861.7326378
 20
6679830.918
 10
25502842.3066572
 20
6679852.363
 10
25502826.0781734
 20
6679871.095
 10
25502813.540686
 20
6679887.607
 10
25502798.3012012
 20
6679909.54
 10
25502785.515214
 20
6679931.276
 10
25502766.8432327
 20
6679964.404
 10
25502750.5667489
 20
6679994.65
 10
25502731.8897676
 20
6680023.46
 10
25502705.5502939
 20
6680064.274
 10
25502682.5543169
 20
6680092.609
 10
25502643.2698562
 20
6680141.115
 10
25502596.7899027
 20
6680190.589
 10
25502545.9954535
 20
6680243.427
 10
25502483.6935158
 20
6680302.037
 10
25502454.2205453
 20
6680330.62
 10
25502445.1350544
 20
6680338.211
  0
LWPOLYLINE
  5
2007C
  8
0
100
AcDbEntity
100
AcDbPolyline
 70
0
 90
20
 10
25503016.6269829
 20
6679740.088
 10
25502993.1160064
 20
6679752.714
 10
25502963.6730358
 20
6679770.018
 10
25502936.3325632
 20
6679787.703
 10
25502909.2895902
 20
6679807.742
 10
25502885.1871143
 20
6679826.895
 10
25502863.7231358
 20
6679848.151
 10
25502847.7396518
 20
6679865.898
 10
25502830.2841692
 20
6679887.833
 10
25502816.519183
 20
6679907.302
 10
25502798.8247007
 20
6679935.393
 10
25502776.455723
 20
6679978.306
 10
25502748.2247513
 20
6680042.152
 10
25502719.9982795
 20
6680109.357
 10
25502703.2512962
 20
6680147.28
 10
25502689.3698101
 20
6680174.645
 10
25502654.4208451
 20
6680237.54
 10
25502601.0273985
 20
6680323.246
 10
25502534.9274646
 20
6680415.445
 10
25502526.2834732
 20
6680426.664
  0
LWPOLYLINE
  5
2007D
  8
0
100
AcDbEntity
100
AcDbPolyline
 70
0
 90
3
 10
25502522.5789769
 20
6680431.396
 10
25502479.8370197
 20
6680486.52
 10
25502445.3145542
 20
6680528.218
  0
LWPOLYLINE
  5
2007E
  8
0
100
AcDbEntity
100
AcDbPolyline
 70
0
 90
12
 10
25503321.7311778
 20
6681610.789
 10
25503274.3757251
 20
6681556.017
 10
25503154.0263455
 20
6681412.518
 10
25503046.515953
 20
6681301.715
 10
25502911.9615875
 20
6681172.455
 10
25502751.4212481
 20
6681025.754
 10
25502656.1903433
 20
6680942.806
 10
25502573.7659257
 20
6680868.624
 10
25502403.8365957
 20
6680727.058
 10
25502054.9629445
 20
6680454.592
 10
25501896.0656034
 20
6680338.908
 10
25501731.1682683
 20
6680217.691
  0
LWPOLYLINE
  5
2007F
  8
0
100
AcDbEntity
100
AcDbPolyline
 70
0
 90
16
 10
25503491.2385083
 20
6681831.44
 10
25503421.0525784
 20
6681712.995
 10
25503370.476129
 20
6681639.812
 10
25503330.5866689
 20
6681583.683
 10
25503290.7042088
 20
6681533.242
 10
25503238.0097615
 20
6681472.861
 10
25503163.2433363
 20
6681389.752
 10
25503063.5679359
 20
6681289.606
 10
25502930.4390691
 20
6681163.189
 10
25502783.7252158
 20
6681027.135
 10
25502742.8982566
 20
6680992.226
 10
25502597.2164023
 20
6680862.514
 10
25502412.7665867
 20
6680707.798
 10
25502057.6724418
 20
6680431.779
 10
25501778.2272213
 20
6680224.087
 10
25501744.3722551
 20
6680199.606
  0
LWPOLYLINE
  5
20080
  8
0
100
AcDbEntity
100
AcDbPolyline
 70
0
 90
17
 10
25500624.4388751
 20
6679563.02
 10
25500593.1714063
 20
6679556.899
 10
25500537.6554618
 20
6679549.292
 10
25500385.6881138
 20
6679530.716
 10
25500329.1996703
 20
6679520.448
 10
25500276.7112228
 20
6679508.271
 10
25500230.3232692
 20
6679495.261
 10
25500179.3863201
 20
6679476.11
 10
25500161.3078382
 20
6679469.025
 10
25500145.1413544
 20
6679462.581
 10
25500119.0518804
 20
6679449.579
 10
25500056.2264433
 20
6679416.311
 10
25500012.7254868
 20
6679389.626
 10
25499974.2660252
 20
6679361.97
 10
25499933.1215664
 20
6679330.742
 10
25499885.3521141
 20
6679289.62
 10
25499843.5786559
 20
6679251.517
  0
LWPOLYLINE
  5
20081
  8
0
100
AcDbEntity
100
AcDbPolyline
 70
0
 90
15
 10
25500629.1418704
 20
6679544.46
 10
25500603.2273963
 20
6679539.482
 10
25500538.7574607
 20
6679529.782
 10
25500385.6636138
 20
6679510.457
 10
25500335.3801641
 20
6679501.888
 10
25500277.2107223
 20
6679487.326
 10
25500213.0297865
 20
6679465.643
 10
25500147.4213521
 20
6679439.033
 10
25500110.1523893
 20
6679423.34
 10
25500074.3034252
 20
6679404.938
 10
25500033.7144658
 20
6679380.218
 10
25499991.2320083
 20
6679351.226
 10
25499955.0065445
 20
6679323.567
 10
25499911.1020884
 20
6679286.772
 10
25499857.9426416
 20
6679238.16
  0
LWPOLYLINE
  5
20082
  8
0
100
AcDbEntity
100
AcDbPolyline
 70
0
 90
6
 10
25501726.2662732
 20
6680214.036
 10
25501510.8409887
 20
6680055.691
 10
25501349.4341501
 20
6679936.613
 10
25501290.4192091
 20
6679896.033
 10
25501220.6777788
 20
6679850.999
 10
25501010.8609886
 20
6679730.595
  0
LWPOLYLINE
  5
20083
  8
0
100
AcDbEntity
100
AcDbPolyline
 70
0
 90
7
 10
25500994.2355053
 20
6679721.069
 10
25500877.7296218
 20
6679656.866
 10
25500848.3971511
 20
6679641.328
 10
25500802.1091974
 20
6679619.398
 10
25500767.2807322
 20
6679604.325
 10
25500728.3317712
 20
6679590.631
 10
25500660.9323386
 20
6679571.732
  0
LWPOLYLINE
  5
20084
  8
0
100
AcDbEntity
100
AcDbPolyline
 70
0
 90
8
 10
25501003.2689962
 20
6679705.288
 10
25500882.7461168
 20
6679638.538
 10
25500834.1651653
 20
6679613.863
 10
25500786.0467135
 20
6679593.31
 10
25500751.6782478
 20
6679579.61
 10
25500710.4387891
 20
6679565.919
 10
25500673.7828257
 20
6679554.97
 10
25500665.5658339
 20
6679552.963
  0
LWPOLYLINE
  5
20085
  8
0
100
AcDbEntity
100
AcDbPolyline
 70
0
 90
7
 10
25501739.54676
 20
6680195.996
 10
25501521.540478
 20
6680037.81
 10
25501356.5591429
 20
6679917.842
 10
25501289.9432096
 20
6679871.464
 10
25501237.6382619
 20
6679838.917
 10
25501171.9258276
 20
6679801.025
 10
25501019.9204796
 20
6679714.748
  0
LWPOLYLINE
  5
20086
  8
0
100
AcDbEntity
100
AcDbPolyline
 70
0
 90
5
 10
25502439.9620595
 20
6680342.56
 10
25502381.8451177
 20
6680391.16
 10
25502326.2406733
 20
6680433.928
 10
25502276.3887231
 20
6680472.371
 10
25502226.3422732
 20
6680518.905
  0
LWPOLYLINE
  5
20087
  8
0
100
AcDbEntity
100
AcDbPolyline
 70
0
 90
13
 10
25502140.8058587
 20
6680610.213
 10
25502094.6724048
 20
6680665.552
 10
25502049.8669496
 20
6680720.637
 10
25502005.471494
 20
6680764.716
 10
25501979.8450197
 20
6680787.642
 10
25501936.3620631
 20
6680820.012
 10
25501891.1541083
 20
6680851.092
 10
25501845.0776544
 20
6680876.571
 10
25501808.0391915
 20
6680892.99
 10
25501757.4347421
 20
6680913.518
 10
25501714.8352847
 20
6680927.256
 10
25501669.1223304
 20
6680938.821
 10
25501627.3793721
 20
6680948.721
  0
LWPOLYLINE
  5
20088
  8
0
100
AcDbEntity
100
AcDbPolyline
 70
0
 90
2
 10
25502170.7203288
 20
6680575.922
 10
25502157.8028417
 20
6680590.651
  0
LWPOLYLINE
  5
20089
  8
0
100
AcDbEntity
100
AcDbPolyline
 70
0
 90
6
 10
25503410.3030892
 20
6679623.225
 10
25503252.8277467
 20
6679663.168
 10
25503169.1223304
 20
6679684.911
 10
25503095.7064038
 20
6679706.997
 10
25503049.9589495
 20
6679724.437
 10
25503016.6269829
 20
6679740.088
  0
LWPOLYLINE
  5
2008A
  8
0
100
AcDbEntity
100
AcDbPolyline
 70
0
 90
7
 10
25503406.6030929
 20
6679608.284
 10
25503248.1967513
 20
6679647.918
 10
25503181.1613183
 20
6679665.028
 10
25503132.5708669
 20
6679678.569
 10
25503087.1749123
 20
6679693.17
 10
25503052.4204471
 20
6679705.984
 10
25503009.8804896
 20
6679725.792
  0
LWPOLYLINE
  5
2008B
  8
0
100
AcDbEntity
100
AcDbPolyline
 70
0
 90
3
 10
25503644.6403549
 20
6679565.382
 10
25503505.6769938
 20
6679599.052
 10
25503435.9625635
 20
6679616.805
  0
LWPOLYLINE
  5
2008C
  8
0
100
AcDbEntity
100
AcDbPolyline
 70
0
 90
16
 10
25504179.7188198
 20
6677339.318
 10
25504161.7193378
 20
6677335.015
 10
25504082.0734174
 20
6677317.558
 10
25504015.2509842
 20
6677303.859
 10
25503945.0050545
 20
6677290.916
 10
25503854.447145
 20
6677274.809
 10
25503755.7822437
 20
6677259.388
 10
25503661.8518376
 20
6677248.015
 10
25503588.1284114
 20
6677239.203
 10
25503491.9490075
 20
6677229.655
 10
25503427.9840715
 20
6677224.211
 10
25503349.7546497
 20
6677218.323
 10
25503267.8477316
 20
6677215.661
 10
25503169.8508296
 20
6677211.87
 10
25503080.6834188
 20
6677210.159
 10
25503044.0409555
 20
6677209.025
  0
LWPOLYLINE
  5
2008D
  8
0
100
AcDbEntity
100
AcDbPolyline
 70
0
 90
33
 10
25504843.8376557
 20
6677733.711
 10
25504797.6687018
 20
6677685.897
 10
25504765.525234
 20
6677654.912
 10
25504736.9952625
 20
6677628.973
 10
25504693.3018062
 20
6677592.951
 10
25504667.7248318
 20
6677572.744
 10
25504623.3223762
 20
6677541.286
 10
25504581.8289177
 20
6677515.629
 10
25504538.9799605
 20
6677491.137
 10
25504473.502026
 20
6677456.439
 10
25504430.464069
 20
6677436.814
 10
25504386.513113
 20
6677418.563
 10
25504358.5871409
 20
6677408.072
 10
25504319.2171803
 20
6677394.391
 10
25504274.3097252
 20
6677381.009
 10
25504225.1222744
 20
6677367.381
 10
25504142.9783565
 20
6677347.71
 10
25504071.9919275
 20
6677332.082
 10
25504004.5569949
 20
6677319.49
 10
25503949.7975497
 20
6677308.91
 10
25503884.8796146
 20
6677297.745
 10
25503812.0641874
 20
6677287.191
 10
25503659.1693403
 20
6677264.909
 10
25503587.538912
 20
6677256.212
 10
25503519.5814799
 20
6677249.868
 10
25503456.537043
 20
6677244.882
 10
25503398.5556009
 20
6677240.811
 10
25503343.7986557
 20
6677239.956
 10
25503324.6971748
 20
6677239.834
 10
25503258.6777408
 20
6677242.82
 10
25503203.9297956
 20
6677249.327
 10
25503125.6618738
 20
6677261.011
 10
25503088.3224112
 20
6677266.07
  0
LWPOLYLINE
  5
2008E
  8
0
100
AcDbEntity
100
AcDbPolyline
 70
0
 90
14
 10
25503000.5769989
 20
6677272.551
 10
25502995.2930042
 20
6677272.629
 10
25502944.4055551
 20
6677271.822
 10
25502886.1426134
 20
6677265.253
 10
25502855.1146444
 20
6677258.89
 10
25502834.7326648
 20
6677252.61
 10
25502814.8786846
 20
6677245.844
 10
25502794.8692046
 20
6677237.644
 10
25502756.1552433
 20
6677218.056
 10
25502714.544785
 20
6677190.965
 10
25502683.9068156
 20
6677164.439
 10
25502664.4118351
 20
6677146.317
 10
25502622.8353767
 20
6677100.357
 10
25502575.1349244
 20
6677044.469
  0
LWPOLYLINE
  5
2008F
  8
0
100
AcDbEntity
100
AcDbPolyline
 70
0
 90
3
 10
25502529.9524695
 20
6676990.62
 10
25502520.0084795
 20
6676978.723
 10
25502497.3560021
 20
6676952.773
  0
LWPOLYLINE
  5
20090
  8
0
100
AcDbEntity
100
AcDbPolyline
 70
0
 90
13
 10
25502946.5680529
 20
6677205.23
 10
25502902.2310973
 20
6677198.247
 10
25502877.9466215
 20
6677194.15
 10
25502847.1491523
 20
6677186.39
 10
25502826.3401732
 20
6677180.757
 10
25502812.0086875
 20
6677175.302
 10
25502786.1182134
 20
6677163.738
 10
25502761.8492376
 20
6677151.063
 10
25502734.533765
 20
6677133.328
 10
25502692.4118071
 20
6677100.274
 10
25502662.6418369
 20
6677073.938
 10
25502626.1278734
 20
6677038.633
 10
25502607.472392
 20
6677019.888
  0
LWPOLYLINE
  5
20091
  8
0
100
AcDbEntity
100
AcDbPolyline
 70
0
 90
8
 10
25502497.3560021
 20
6676952.773
 10
25502466.9050326
 20
6676912.297
 10
25502437.9615615
 20
6676873.335
 10
25502416.3220832
 20
6676842.22
 10
25502357.0246425
 20
6676757.846
 10
25502331.468668
 20
6676724.155
 10
25502293.7912057
 20
6676666.463
 10
25502277.2727222
 20
6676639.4
  0
LWPOLYLINE
  5
20092
  8
0
100
AcDbEntity
100
AcDbPolyline
 70
0
 90
8
 10
25502557.4079421
 20
6676969.892
 10
25502507.8704916
 20
6676916.736
 10
25502460.3910391
 20
6676861.244
 10
25502428.0800714
 20
6676821.726
 10
25502383.4041161
 20
6676764.267
 10
25502323.2646762
 20
6676679.614
 10
25502307.7286918
 20
6676655.685
 10
25502291.6677078
 20
6676631.133
  0
LWPOLYLINE
  5
20093
  8
0
100
AcDbEntity
100
AcDbPolyline
 70
0
 90
4
 10
25502274.2177253
 20
6676634.393
 10
25502247.0577524
 20
6676589.963
 10
25502157.2033423
 20
6676436.048
 10
25502069.6549298
 20
6676283.175
  0
LWPOLYLINE
  5
20094
  8
0
100
AcDbEntity
100
AcDbPolyline
 70
0
 90
4
 10
25502288.6077109
 20
6676626.044
 10
25502269.2842302
 20
6676593.229
 10
25502180.539319
 20
6676438.765
 10
25502085.539914
 20
6676273.965
  0
LWPOLYLINE
  5
20095
  8
0
100
AcDbEntity
100
AcDbPolyline
 70
0
 90
3
 10
25502082.450917
 20
6676268.603
 10
25501988.495511
 20
6676105.669
 10
25501908.4205911
 20
6675967.149
  0
LWPOLYLINE
  5
20096
  8
0
100
AcDbEntity
100
AcDbPolyline
 70
0
 90
3
 10
25500968.9100306
 20
6675238.952
 10
25500957.1875423
 20
6675231.841
 10
25500949.8930496
 20
6675227.726
  0
LWPOLYLINE
  5
20097
  8
0
100
AcDbEntity
100
AcDbPolyline
 70
0
 90
5
 10
25501244.6347549
 20
6675429.194
 10
25501239.6017599
 20
6675425.883
 10
25501186.9578125
 20
6675389.48
 10
25501098.2519012
 20
6675327.991
 10
25501011.9279876
 20
6675268.891
  0
LWPOLYLINE
  5
20098
  8
0
100
AcDbEntity
100
AcDbPolyline
 70
0
 90
22
 10
25501908.4205911
 20
6675967.149
 10
25501858.6036409
 20
6675880.11
 10
25501827.8556716
 20
6675824.834
 10
25501798.6342009
 20
6675781.008
 10
25501778.2897212
 20
6675752.728
 10
25501756.8662426
 20
6675725.313
 10
25501741.7222578
 20
6675709.126
 10
25501728.525271
 20
6675695.098
 10
25501715.9787835
 20
6675682.797
 10
25501696.9443026
 20
6675665.967
 10
25501679.9488195
 20
6675652.771
 10
25501663.7068358
 20
6675641.53
 10
25501639.8438597
 20
6675627.318
 10
25501613.6643858
 20
6675614.433
 10
25501587.8179117
 20
6675603.534
 10
25501560.3169392
 20
6675593.301
 10
25501461.5820379
 20
6675560.631
 10
25501433.4165661
 20
6675549.073
 10
25501409.7825897
 20
6675536.399
 10
25501376.1261234
 20
6675516.033
 10
25501322.0451775
 20
6675479.822
 10
25501253.6977458
 20
6675435.121
  0
LWPOLYLINE
  5
20099
  8
0
100
AcDbEntity
100
AcDbPolyline
 70
0
 90
7
 10
25501225.8942736
 20
6675458.083
 10
25501212.0422875
 20
6675447.456
 10
25501188.5898109
 20
6675427.834
 10
25501156.8128427
 20
6675398.775
 10
25501124.2823752
 20
6675371.607
 10
25501084.1214154
 20
6675340.641
 10
25501003.7659957
 20
6675280.747
  0
LWPOLYLINE
  5
2009A
  8
0
100
AcDbEntity
100
AcDbPolyline
 70
0
 90
27
 10
25502066.5949329
 20
6676277.835
 10
25501988.7425108
 20
6676141.767
 10
25501900.0035995
 20
6675988.944
 10
25501841.1096584
 20
6675886.613
 10
25501820.1081794
 20
6675850.556
 10
25501814.5631849
 20
6675841.653
 10
25501779.1882203
 20
6675781.247
 10
25501762.9542365
 20
6675757.284
 10
25501744.9902545
 20
6675731.593
 10
25501733.0882664
 20
6675716.483
 10
25501721.8377777
 20
6675703.965
 10
25501707.7767917
 20
6675690.153
 10
25501688.0943114
 20
6675672.892
 10
25501674.9943245
 20
6675663.707
 10
25501654.1138454
 20
6675651.146
 10
25501634.5603649
 20
6675640.241
 10
25501612.3583871
 20
6675630
 10
25501589.8259097
 20
6675620.754
 10
25501576.2414233
 20
6675616.134
 10
25501501.0354985
 20
6675595.028
 10
25501447.6945518
 20
6675579.195
 10
25501391.0376085
 20
6675560.385
 10
25501358.0221415
 20
6675544.774
 10
25501314.9141846
 20
6675520.264
 10
25501288.4422111
 20
6675503.669
 10
25501256.2957432
 20
6675481.412
 10
25501234.1407654
 20
6675464.407
  0
LWPOLYLINE
  5
2009B
  8
0
100
AcDbEntity
100
AcDbPolyline
 70
0
 90
8
 10
25500730.7752687
 20
6675123.941
 10
25500677.2198223
 20
6675106.238
 10
25500653.9118456
 20
6675101.177
 10
25500609.6293899
 20
6675093.998
 10
25500514.9449846
 20
6675082.021
 10
25500467.0240325
 20
6675077.073
 10
25500432.545067
 20
6675071.454
 10
25500382.477117
 20
6675062.482
  0
LWPOLYLINE
  5
2009C
  8
0
100
AcDbEntity
100
AcDbPolyline
 70
0
 90
6
 10
25500949.8930496
 20
6675227.726
 10
25500926.1310734
 20
6675214.841
 10
25500865.6576338
 20
6675184.134
 10
25500806.2681932
 20
6675155.117
 10
25500768.6787308
 20
6675138.134
 10
25500743.0817564
 20
6675128.319
  0
LWPOLYLINE
  5
2009D
  8
0
100
AcDbEntity
100
AcDbPolyline
 70
0
 90
8
 10
25500957.9620415
 20
6675250.774
 10
25500938.486561
 20
6675237.745
 10
25500910.5480889
 20
6675221.776
 10
25500878.1831213
 20
6675205.812
 10
25500845.8201537
 20
6675191.04
 10
25500813.0981864
 20
6675177.854
 10
25500780.6767188
 20
6675166.644
 10
25500733.9867655
 20
6675153
  0
LWPOLYLINE
  5
2009E
  8
0
100
AcDbEntity
100
AcDbPolyline
 70
0
 90
7
 10
25500721.2077783
 20
6675149.231
 10
25500706.7282928
 20
6675145.038
 10
25500645.1058544
 20
6675128.239
 10
25500584.0229155
 20
6675114.652
 10
25500533.494466
 20
6675104.637
 10
25500387.8551116
 20
6675077.543
 10
25500380.0711194
 20
6675075.998
  0
LWPOLYLINE
  5
2009F
  8
0
100
AcDbEntity
100
AcDbPolyline
 70
0
 90
14
 10
25504034.2164653
 20
6683285.252
 10
25504029.5829699
 20
6683273.366
 10
25503986.8005127
 20
6683157.894
 10
25503896.5986029
 20
6682914.813
 10
25503818.1936813
 20
6682703.61
 10
25503660.0308395
 20
6682278.611
 10
25503583.511916
 20
6682070.622
 10
25503546.7979527
 20
6681985.061
 10
25503518.6664808
 20
6681925.296
 10
25503485.469014
 20
6681860.018
 10
25503438.9095606
 20
6681776.356
 10
25503412.543587
 20
6681732.917
 10
25503361.9651375
 20
6681658.311
 10
25503321.7311778
 20
6681610.789
  0
LWPOLYLINE
  5
200A0
  8
0
100
AcDbEntity
100
AcDbPolyline
 70
0
 90
9
 10
25504052.8599466
 20
6683271.418
 10
25504004.1919953
 20
6683154.612
 10
25503920.7410788
 20
6682933.115
 10
25503836.524163
 20
6682702.624
 10
25503679.9278196
 20
6682279.416
 10
25503595.1009044
 20
6682056.515
 10
25503563.3549361
 20
6681982.741
 10
25503538.450961
 20
6681929.412
 10
25503491.2385083
 20
6681831.44
  0
LWPOLYLINE
  5
200A1
  8
0
100
AcDbEntity
100
AcDbPolyline
 70
0
 90
20
 10
25504740.7822587
 20
6684397.099
 10
25504720.8127787
 20
6684359.55
 10
25504693.0938064
 20
6684308.56
 10
25504673.0233265
 20
6684273.297
 10
25504651.0443484
 20
6684237.082
 10
25504625.2438743
 20
6684195.15
 10
25504582.7664167
 20
6684132.035
 10
25504540.9849585
 20
6684071.783
 10
25504506.1049934
 20
6684027.161
 10
25504468.0995314
 20
6683980.276
 10
25504395.6346039
 20
6683889.334
 10
25504307.6121919
 20
6683776.487
 10
25504273.459226
 20
6683728.564
 10
25504240.462259
 20
6683680.639
 10
25504213.8322857
 20
6683641.375
 10
25504186.6193129
 20
6683597.489
 10
25504150.4263491
 20
6683535.244
 10
25504121.7038778
 20
6683481.974
 10
25504096.9989025
 20
6683432.712
 10
25504072.519427
 20
6683378.841
  0
LWPOLYLINE
  5
200A2
  8
0
100
AcDbEntity
100
AcDbPolyline
 70
0
 90
17
 10
25504762.5512369
 20
6684380.336
 10
25504741.7722577
 20
6684340.928
 10
25504702.1067974
 20
6684269.447
 10
25504680.8823186
 20
6684235.437
 10
25504631.0598684
 20
6684146.37
 10
25504535.8829636
 20
6684018.785
 10
25504398.3016012
 20
6683846.28
 10
25504353.3706461
 20
6683790.141
 10
25504327.498672
 20
6683755.732
 10
25504290.1907093
 20
6683706.006
 10
25504258.9317406
 20
6683661.547
 10
25504239.8252597
 20
6683631.52
 10
25504216.0862834
 20
6683593.408
 10
25504190.5653089
 20
6683550.098
 10
25504162.9958365
 20
6683501.985
 10
25504129.1043704
 20
6683439.552
 10
25504097.7339018
 20
6683374.022
  0
LWPOLYLINE
  5
200A3
  8
0
100
AcDbEntity
100
AcDbPolyline
 70
0
 90
2
 10
25504073.2469262
 20
6683320.547
 10
25504056.9424426
 20
6683281.017
  0
LWPOLYLINE
  5
200A4
  8
0
100
AcDbEntity
100
AcDbPolyline
 70
0
 90
2
 10
25504049.3924501
 20
6683323.678
 10
25504038.1614613
 20
6683295.126
  0
LWPOLYLINE
  5
200A5
  8
0
100
AcDbEntity
100
AcDbPolyline
 70
0
 90
12
 10
25504687.7713117
 20
6682369.961
 10
25504422.8735766
 20
6682292.824
 10
25504385.2181143
 20
6682283.564
 10
25504341.2666582
 20
6682272.608
 10
25504290.7957087
 20
6682261.201
 10
25504249.50175
 20
6682252.077
 10
25504173.0363265
 20
6682238.792
 10
25504081.2209183
 20
6682223.674
 10
25504013.525986
 20
6682215.294
 10
25503931.8610676
 20
6682208.647
 10
25503775.9952235
 20
6682198.057
 10
25503713.4307861
 20
6682191.613
  0
LWPOLYLINE
  5
200A6
  8
0
100
AcDbEntity
100
AcDbPolyline
 70
0
 90
17
 10
25503583.1184164
 20
6682160.66
 10
25503566.7184328
 20
6682152.89
 10
25503546.3104532
 20
6682140.117
 10
25503528.0364715
 20
6682127.061
 10
25503503.1424964
 20
6682107.195
 10
25503483.2210163
 20
6682086.493
 10
25503457.480042
 20
6682051.706
 10
25503438.3710611
 20
6682016.911
 10
25503426.3095732
 20
6681982.936
 10
25503418.0595814
 20
6681952.68
 10
25503411.0005885
 20
6681914.553
 10
25503401.6960978
 20
6681831.719
 10
25503395.9491035
 20
6681791.399
 10
25503385.8181137
 20
6681750.208
 10
25503373.9406256
 20
6681715.156
 10
25503354.1631453
 20
6681671.346
 10
25503321.7311778
 20
6681610.789
  0
LWPOLYLINE
  5
200A7
  8
0
100
AcDbEntity
100
AcDbPolyline
 70
0
 90
21
 10
25504682.2438173
 20
6682349.498
 10
25504424.8170747
 20
6682274.473
 10
25504353.0411465
 20
6682255.884
 10
25504264.6342349
 20
6682236.066
 10
25504207.7577917
 20
6682224.641
 10
25504143.8178557
 20
6682214.292
 10
25503994.0420055
 20
6682194.589
 10
25503937.6385619
 20
6682187.086
 10
25503884.5701149
 20
6682177.202
 10
25503837.3606621
 20
6682163.453
 10
25503788.2442112
 20
6682144.225
 10
25503744.3822551
 20
6682120.608
 10
25503699.6362999
 20
6682090.855
 10
25503681.3963181
 20
6682076.73
 10
25503658.475341
 20
6682056.705
 10
25503617.1378824
 20
6682014.684
 10
25503597.8209017
 20
6681989.284
 10
25503574.1119254
 20
6681956.875
 10
25503556.544443
 20
6681928.843
 10
25503527.5524719
 20
6681877.155
 10
25503491.2385083
 20
6681831.44
  0
LWPOLYLINE
  5
200A8
  8
0
100
AcDbEntity
100
AcDbPolyline
 70
0
 90
3
 10
25504035.8804636
 20
6679466.035
 10
25503983.4040161
 20
6679481.765
 10
25503918.9570805
 20
6679497.905
  0
LWPOLYLINE
  5
200A9
  8
0
100
AcDbEntity
100
AcDbPolyline
 70
0
 90
3
 10
25504089.0559104
 20
6679430.309
 10
25504066.1089334
 20
6679440.365
 10
25504049.46995
 20
6679446.146
  0
LWPOLYLINE
  5
200AA
  8
0
100
AcDbEntity
100
AcDbPolyline
 70
0
 90
3
 10
25504087.9714115
 20
6679446.681
 10
25504071.2184283
 20
6679453.909
 10
25504054.1389454
 20
6679459.855
  0
LWPOLYLINE
  5
200AB
  8
0
100
AcDbEntity
100
AcDbPolyline
 70
0
 90
6
 10
25504255.4232441
 20
6679327.642
 10
25504205.7752937
 20
6679373.9
 10
25504190.0063095
 20
6679387.496
 10
25504175.0703244
 20
6679398.818
 10
25504156.9443426
 20
6679410.781
 10
25504145.0058545
 20
6679417.783
  0
LWPOLYLINE
  5
200AC
  8
0
100
AcDbEntity
100
AcDbPolyline
 70
0
 90
13
 10
25504410.1510893
 20
6679061.261
 10
25504407.0995924
 20
6679068.775
 10
25504397.3876021
 20
6679089.315
 10
25504369.3671301
 20
6679136.762
 10
25504313.3121862
 20
6679219.472
 10
25504279.3912201
 20
6679266.982
 10
25504262.2817372
 20
6679292.913
 10
25504246.3607531
 20
6679312.464
 10
25504230.0387695
 20
6679330.422
 10
25504206.5467929
 20
6679352.374
 10
25504177.479322
 20
6679378.319
 10
25504158.7468407
 20
6679393.642
 10
25504145.8908536
 20
6679400.684
  0
LWPOLYLINE
  5
200AD
  8
0
100
AcDbEntity
100
AcDbPolyline
 70
0
 90
6
 10
25504433.3810661
 20
6679070.784
 10
25504429.1175704
 20
6679077.714
 10
25504384.7411148
 20
6679145.749
 10
25504327.0946724
 20
6679226.872
 10
25504279.8232197
 20
6679294.885
 10
25504255.3577441
 20
6679327.729
  0
LWPOLYLINE
  5
200AE
  8
0
100
AcDbEntity
100
AcDbPolyline
 70
0
 90
18
 10
25504653.2103463
 20
6678288.025
 10
25504640.8473586
 20
6678325.406
 10
25504590.2464092
 20
6678474.186
 10
25504567.5919319
 20
6678550.359
 10
25504557.9569415
 20
6678584.929
 10
25504550.0524494
 20
6678621.571
 10
25504541.0169585
 20
6678672.021
 10
25504540.9484585
 20
6678672.448
 10
25504532.8424667
 20
6678715.934
 10
25504524.7854747
 20
6678774.461
 10
25504518.9234806
 20
6678824.468
 10
25504517.0854824
 20
6678855.987
 10
25504514.4309851
 20
6678895.516
 10
25504508.3499911
 20
6678925.588
 10
25504502.488497
 20
6678945.743
 10
25504494.9450045
 20
6678968.615
 10
25504487.1460123
 20
6678983.096
 10
25504435.7430638
 20
6679066.905
  0
LWPOLYLINE
  5
200AF
  8
0
100
AcDbEntity
100
AcDbPolyline
 70
0
 90
5
 10
25504765.1002344
 20
6677950.998
 10
25504750.8592486
 20
6677993.859
 10
25504732.1762673
 20
6678048.365
 10
25504716.9842825
 20
6678094.488
 10
25504654.477345
 20
6678284.041
  0
LWPOLYLINE
  5
200B0
  8
0
100
AcDbEntity
100
AcDbPolyline
 70
0
 90
25
 10
25504639.2683602
 20
6678283.396
 10
25504625.3763741
 20
6678325.425
 10
25504589.7294098
 20
6678439.066
 10
25504555.8389437
 20
6678547.954
 10
25504545.520954
 20
6678589.091
 10
25504538.6479608
 20
6678621.239
 10
25504528.9344706
 20
6678669.194
 10
25504522.2699772
 20
6678710.257
 10
25504513.0014865
 20
6678774.881
 10
25504508.8694906
 20
6678792.703
 10
25504504.5834949
 20
6678805.386
 10
25504499.2160003
 20
6678816.851
 10
25504493.2905062
 20
6678827.132
 10
25504486.511513
 20
6678837.327
 10
25504476.5655229
 20
6678849.79
 10
25504450.9230486
 20
6678885.458
 10
25504443.1100564
 20
6678904.217
 10
25504439.0030605
 20
6678917.093
 10
25504433.6230659
 20
6678936.862
 10
25504430.478569
 20
6678960.48
 10
25504428.6130709
 20
6678982.273
 10
25504426.462073
 20
6679000.222
 10
25504421.7150778
 20
6679022.298
 10
25504416.3100832
 20
6679046.214
 10
25504411.8620876
 20
6679057.092
  0
LWPOLYLINE
  5
200B1
  8
0
100
AcDbEntity
100
AcDbPolyline
 70
0
 90
8
 10
25504730.483269
 20
6677930.66
 10
25504722.2692772
 20
6677961.249
 10
25504720.1692793
 20
6677977.485
 10
25504718.6107809
 20
6678023.492
 10
25504714.7527847
 20
6678050.201
 10
25504710.0567894
 20
6678069.81
 10
25504700.2902992
 20
6678098.864
 10
25504640.5908589
 20
6678279.468
  0
LWPOLYLINE
  5
200B2
  8
0
100
AcDbEntity
100
AcDbPolyline
 70
0
 90
63
 10
25509699.4893
 20
6683293.997
 10
25509678.3018212
 20
6683288.774
 10
25509663.2583362
 20
6683285.469
 10
25509646.6403528
 20
6683281.642
 10
25509631.9468675
 20
6683278.337
 10
25509614.9793845
 20
6683274.86
 10
25509575.7984237
 20
6683267.562
 10
25509548.6874508
 20
6683263.398
 10
25509535.5689639
 20
6683261.315
 10
25509515.1049844
 20
6683258.542
 10
25509493.7665057
 20
6683255.594
 10
25509480.474019
 20
6683254.036
 10
25509441.501058
 20
6683251.629
 10
25509421.457578
 20
6683250.085
 10
25509405.4235941
 20
6683249.407
 10
25509380.2616192
 20
6683247.686
 10
25509347.5586519
 20
6683246.851
 10
25509317.8296817
 20
6683247.062
 10
25509295.0957044
 20
6683247.089
 10
25509273.5867259
 20
6683247.815
 10
25509244.3837551
 20
6683249.074
 10
25509217.454782
 20
6683250.68
 10
25509190.7008088
 20
6683252.811
 10
25509167.6198319
 20
6683254.762
 10
25509121.516378
 20
6683261.251
 10
25509101.8628976
 20
6683264.157
 10
25509075.0389245
 20
6683267.815
 10
25509046.1849533
 20
6683272.345
 10
25509006.5874929
 20
6683279.439
 10
25508938.2270613
 20
6683293.161
 10
25508913.0505864
 20
6683297.913
 10
25508868.2921312
 20
6683306.536
 10
25508852.0321475
 20
6683309.529
 10
25508837.520162
 20
6683311.994
 10
25508815.3146842
 20
6683315.169
 10
25508779.2942202
 20
6683318.535
 10
25508753.7642457
 20
6683320.314
 10
25508733.6542658
 20
6683321.213
 10
25508714.4187851
 20
6683321.935
 10
25508695.8823036
 20
6683322.482
 10
25508669.3008302
 20
6683322.339
 10
25508653.3863461
 20
6683321.659
 10
25508641.3193582
 20
6683321.324
 10
25508623.1308764
 20
6683320.296
 10
25508594.9724045
 20
6683317.532
 10
25508572.7599267
 20
6683315.111
 10
25508547.3994521
 20
6683312.168
 10
25508525.0109745
 20
6683308.698
 10
25508501.5729979
 20
6683304.879
 10
25508482.8565166
 20
6683301.229
 10
25508464.3150352
 20
6683297.578
 10
25508444.0245555
 20
6683293.406
 10
25508414.6365849
 20
6683286.446
 10
25508380.1771193
 20
6683278.968
 10
25508343.442156
 20
6683270.093
 10
25508312.3036872
 20
6683261.737
 10
25508294.8112047
 20
6683257.561
 10
25508244.2547552
 20
6683243.456
 10
25508198.4203011
 20
6683229.521
 10
25508165.8793336
 20
6683218.193
 10
25508141.0373585
 20
6683210.179
 10
25508086.1024134
 20
6683190.834
 10
25507986.7260128
 20
6683152.48
  0
LWPOLYLINE
  5
200B3
  8
0
100
AcDbEntity
100
AcDbPolyline
 70
0
 90
7
 10
25509701.0772984
 20
6683313.002
 10
25509705.6682938
 20
6683314.179
 10
25509730.5987689
 20
6683321.01
 10
25509745.1947543
 20
6683325.567
 10
25509778.0162215
 20
6683335.938
 10
25509790.3257092
 20
6683340.656
 10
25509822.2006773
 20
6683350.791
  0
LWPOLYLINE
  5
200B4
  8
0
100
AcDbEntity
100
AcDbPolyline
 70
0
 90
51
 10
25507983.8060157
 20
6683170.488
 10
25508009.1649903
 20
6683180.596
 10
25508056.2599432
 20
6683199.007
 10
25508101.9038976
 20
6683215.789
 10
25508182.1413173
 20
6683242.85
 10
25508209.49029
 20
6683252.051
 10
25508252.2332473
 20
6683264.854
 10
25508287.0067125
 20
6683274.77
 10
25508357.2751422
 20
6683292.79
 10
25508444.7440547
 20
6683311.695
 10
25508505.4094941
 20
6683323.39
 10
25508557.0179425
 20
6683331.475
 10
25508582.5489169
 20
6683334.341
 10
25508622.9273766
 20
6683337.914
 10
25508654.4318451
 20
6683339.686
 10
25508675.0728244
 20
6683340.929
 10
25508692.6343069
 20
6683340.908
 10
25508727.0322725
 20
6683339.961
 10
25508767.0402325
 20
6683336.835
 10
25508780.0742194
 20
6683335.552
 10
25508793.471206
 20
6683334.812
 10
25508809.2206903
 20
6683333.345
 10
25508832.0291675
 20
6683330.42
 10
25508849.6486498
 20
6683327.827
 10
25508868.6516308
 20
6683324.492
 10
25508889.46861
 20
6683320.76
 10
25508924.5575749
 20
6683314.645
 10
25508962.7210368
 20
6683307.501
 10
25508997.9670015
 20
6683300.755
 10
25509026.9054726
 20
6683295.436
 10
25509075.0049245
 20
6683286.939
 10
25509120.6608788
 20
6683279.786
 10
25509134.3023652
 20
6683277.64
 10
25509178.6208209
 20
6683272.776
 10
25509198.4143011
 20
6683270.78
 10
25509223.1762763
 20
6683268.779
 10
25509275.3842241
 20
6683266.271
 10
25509315.8421836
 20
6683265.197
 10
25509362.8481366
 20
6683265.456
 10
25509381.2251183
 20
6683265.907
 10
25509412.537587
 20
6683267.447
 10
25509432.9660665
 20
6683268.684
 10
25509469.1700303
 20
6683271.717
 10
25509488.495011
 20
6683273.744
 10
25509520.9149786
 20
6683277.727
 10
25509542.6864568
 20
6683281.014
 10
25509575.9754235
 20
6683286.494
 10
25509592.0679074
 20
6683289.235
 10
25509616.6008829
 20
6683293.544
 10
25509643.3443561
 20
6683299.19
 10
25509694.9258046
 20
6683311.388
  0
LWPOLYLINE
  5
200B5
  8
0
100
AcDbEntity
100
AcDbPolyline
 70
0
 90
14
 10
25511582.7214168
 20
6683790.891
 10
25511565.6354339
 20
6683778.868
 10
25511553.3724461
 20
6683771.132
 10
25511533.457466
 20
6683758.483
 10
25511516.8979826
 20
6683748.868
 10
25511491.0120085
 20
6683734.864
 10
25511472.3580271
 20
6683725.251
 10
25511451.0845484
 20
6683714.908
 10
25511424.0480754
 20
6683702.582
 10
25511402.1475973
 20
6683693.287
 10
25511381.6096179
 20
6683684.619
 10
25511364.0066355
 20
6683678.251
 10
25511349.44265
 20
6683673.242
 10
25511325.526674
 20
6683665.513
  0
LWPOLYLINE
  5
200B6
  8
0
100
AcDbEntity
100
AcDbPolyline
 70
0
 90
58
 10
25511316.8881826
 20
6683662.821
 10
25511307.2186923
 20
6683659.886
 10
25511291.0842084
 20
6683655.402
 10
25511273.3782261
 20
6683650.501
 10
25511255.3587441
 20
6683646.229
 10
25511235.7682637
 20
6683641.853
 10
25511218.3782811
 20
6683638.313
 10
25511205.2832942
 20
6683635.606
 10
25511193.445806
 20
6683633.63
 10
25511178.3613211
 20
6683631.135
 10
25511162.5438369
 20
6683629.059
 10
25511147.8788516
 20
6683626.877
 10
25511133.7378658
 20
6683625.638
 10
25511119.9118796
 20
6683624.502
 10
25511105.8758936
 20
6683623.367
 10
25511092.1549073
 20
6683622.441
 10
25511077.9099216
 20
6683621.725
 10
25511062.512937
 20
6683620.801
 10
25511052.2489472
 20
6683620.604
 10
25511038.528461
 20
6683620.096
 10
25511018.1054814
 20
6683620.33
 10
25511003.442996
 20
6683620.662
 10
25510980.7165188
 20
6683621.423
 10
25510951.2880482
 20
6683622.82
 10
25510932.5420669
 20
6683623.889
 10
25510913.5865859
 20
6683624.855
 10
25510880.9131186
 20
6683627.722
 10
25510858.0831414
 20
6683629.739
 10
25510811.480188
 20
6683632.623
 10
25510792.3152072
 20
6683633.589
 10
25510751.3642481
 20
6683633.848
 10
25510730.8367687
 20
6683634.082
 10
25510693.6553058
 20
6683633.289
 10
25510674.8018247
 20
6683632.159
 10
25510633.532366
 20
6683628.334
 10
25510618.8673806
 20
6683626.78
 10
25510604.2023953
 20
6683624.703
 10
25510570.7854287
 20
6683619.088
 10
25510539.1479603
 20
6683612.632
 10
25510520.7099788
 20
6683608.57
 10
25510488.9670105
 20
6683601.277
 10
25510467.489532
 20
6683595.437
 10
25510443.2875562
 20
6683588.554
 10
25510425.6860738
 20
6683583.338
 10
25510374.6606248
 20
6683566.957
 10
25510330.5506689
 20
6683552.661
 10
25510300.480199
 20
6683542.747
 10
25510260.0367395
 20
6683529.285
 10
25510238.9757605
 20
6683521.56
 10
25510194.2348053
 20
6683505.171
 10
25510135.1368644
 20
6683481.991
 10
25510077.6064219
 20
6683455.877
 10
25510018.0869814
 20
6683430.289
 10
25509964.5410349
 20
6683407.835
 10
25509929.0175705
 20
6683392.534
 10
25509897.3721021
 20
6683379.376
 10
25509834.502165
 20
6683354.525
 10
25509822.2006773
 20
6683350.791
  0
LWPOLYLINE
  5
200B7
  8
0
100
AcDbEntity
100
AcDbPolyline
 70
0
 90
17
 10
25511587.1829123
 20
6683771.73
 10
25511577.450922
 20
6683765.375
 10
25511559.49294
 20
6683753.472
 10
25511551.8544476
 20
6683747.931
 10
25511538.2844612
 20
6683740.121
 10
25511522.8674766
 20
6683731.421
 10
25511507.491992
 20
6683722.823
 10
25511494.991
 20
6683716.233
 10
25511481.0530184
 20
6683709.213
 10
25511465.8225337
 20
6683701.764
 10
25511448.7250508
 20
6683693.887
 10
25511433.9265656
 20
6683687.442
 10
25511410.6510888
 20
6683677.418
 10
25511391.6866078
 20
6683669.687
 10
25511380.7681187
 20
6683665.392
 10
25511356.490143
 20
6683657.38
 10
25511331.0856684
 20
6683647.472
  0
LWPOLYLINE
  5
200B8
  8
0
100
AcDbEntity
100
AcDbPolyline
 70
0
 90
76
 10
25511322.6816768
 20
6683644.193
 10
25511304.3386952
 20
6683637.051
 10
25511290.7337088
 20
6683633.442
 10
25511274.8162247
 20
6683630.313
 10
25511259.5977399
 20
6683627.184
 10
25511239.3077602
 20
6683623.361
 10
25511224.0897754
 20
6683620.231
 10
25511209.3967901
 20
6683617.626
 10
25511189.1068104
 20
6683614.328
 10
25511173.7148258
 20
6683611.898
 10
25511160.2468392
 20
6683609.99
 10
25511148.7033508
 20
6683608.43
 10
25511136.460363
 20
6683607.221
 10
25511116.1723833
 20
6683605.147
 10
25511095.3599041
 20
6683603.423
 10
25511078.9204206
 20
6683602.743
 10
25511062.1319374
 20
6683602.414
 10
25511045.517954
 20
6683602.084
 10
25511031.3529681
 20
6683602.101
 10
25511017.7124818
 20
6683601.942
 10
25511002.8484966
 20
6683602.31
 10
25510987.9845115
 20
6683602.853
 10
25510969.9725295
 20
6683603.224
 10
25510954.7595447
 20
6683604.117
 10
25510942.6935568
 20
6683604.656
 10
25510881.1421183
 20
6683609.277
 10
25510849.49215
 20
6683611.413
 10
25510815.9181836
 20
6683613.552
 10
25510796.8577026
 20
6683614.275
 10
25510774.474725
 20
6683615.526
 10
25510757.512242
 20
6683616.071
 10
25510745.445754
 20
6683616.085
 10
25510726.9087726
 20
6683616.107
 10
25510713.0927864
 20
6683615.599
 10
25510695.2543042
 20
6683614.572
 10
25510680.7388188
 20
6683613.89
 10
25510662.5498369
 20
6683612.512
 10
25510641.9113576
 20
6683610.089
 10
25510621.6228779
 20
6683607.665
 10
25510599.5848999
 20
6683605.068
 10
25510581.0444184
 20
6683601.943
 10
25510561.8044377
 20
6683598.993
 10
25510539.9389596
 20
6683594.298
 10
25510524.7209748
 20
6683591.168
 10
25510496.2080033
 20
6683584.382
 10
25510459.1215404
 20
6683574.284
 10
25510435.3300642
 20
6683567.318
 10
25510406.6390928
 20
6683558.258
 10
25510377.4241221
 20
6683549.2
 10
25510350.6571488
 20
6683540.313
 10
25510327.2136723
 20
6683532.122
 10
25510295.0237045
 20
6683521.668
 10
25510270.7052288
 20
6683512.779
 10
25510248.8357507
 20
6683504.936
 10
25510209.9957895
 20
6683490.468
 10
25510179.2028203
 20
6683478.438
 10
25510144.2108553
 20
6683464.315
 10
25510117.6158819
 20
6683452.98
 10
25510092.0704074
 20
6683442.168
 10
25510062.501437
 20
6683429.788
 10
25510042.2049573
 20
6683420.893
 10
25510015.4349841
 20
6683409.209
 10
25510001.4374981
 20
6683403.455
 10
25509971.1680283
 20
6683390.2
 10
25509952.0965474
 20
6683381.829
 10
25509924.2770752
 20
6683370.146
 10
25509899.4326001
 20
6683360.383
 10
25509882.6366169
 20
6683353.758
 10
25509863.7411357
 20
6683346.61
 10
25509830.499669
 20
6683334.409
 10
25509820.1771793
 20
6683330.574
 10
25509797.6092019
 20
6683323.081
 10
25509786.9372126
 20
6683319.422
 10
25509776.0907234
 20
6683316.112
 10
25509729.7322698
 20
6683302.527
 10
25509705.528794
 20
6683295.722
  0
LWPOLYLINE
  5
200B9
  8
0
100
AcDbEntity
100
AcDbPolyline
 70
0
 90
34
 10
25513943.1690563
 20
6684764.966
 10
25513916.9200826
 20
6684762.119
 10
25513890.501109
 20
6684758.764
 10
25513860.8646386
 20
6684755.413
 10
25513825.8086737
 20
6684751.053
 10
25513800.4056991
 20
6684747.528
 10
25513764.8407346
 20
6684742.321
 10
25513732.3237672
 20
6684737.111
 10
25513704.0402954
 20
6684732.235
 10
25513677.9583215
 20
6684727.356
 10
25513636.9708625
 20
6684718.769
 10
25513607.3308922
 20
6684712.371
 10
25513572.2699272
 20
6684703.777
 10
25513540.4274591
 20
6684696.026
 10
25513500.6224989
 20
6684685.237
 10
25513483.3455161
 20
6684680.348
 10
25513450.6530488
 20
6684670.227
 10
25513419.48558
 20
6684660.444
 10
25513391.7046078
 20
6684651.334
 10
25513371.0381284
 20
6684644.077
 10
25513346.8146527
 20
6684635.64
 10
25513325.469674
 20
6684627.538
 10
25513305.479694
 20
6684619.943
 10
25513283.1182164
 20
6684611.164
 10
25513255.6737438
 20
6684600.022
 10
25513231.2787682
 20
6684590.061
 10
25513211.457788
 20
6684581.957
 10
25513169.7813297
 20
6684563.551
 10
25513136.0673634
 20
6684548.352
 10
25513089.1389103
 20
6684527.92
 10
25513051.3604481
 20
6684512.048
 10
25512999.8589996
 20
6684490.606
 10
25512967.3330322
 20
6684477.607
 10
25512920.2255793
 20
6684459.714
  0
LWPOLYLINE
  5
200BA
  8
0
100
AcDbEntity
100
AcDbPolyline
 70
0
 90
38
 10
25512911.1065884
 20
6684456.525
 10
25512838.2496612
 20
6684430.689
 10
25512805.5566939
 20
6684420.061
 10
25512765.0717344
 20
6684406.902
 10
25512728.9922705
 20
6684396.109
 10
25512685.2908142
 20
6684383.462
 10
25512610.9328886
 20
6684363.74
 10
25512538.7764607
 20
6684344.693
 10
25512498.8035007
 20
6684334.75
 10
25512435.6245639
 20
6684317.724
 10
25512401.4085981
 20
6684308.114
 10
25512359.0611404
 20
6684294.619
 10
25512323.8266757
 20
6684282.808
 10
25512284.526215
 20
6684268.971
 10
25512251.8307477
 20
6684256.141
 10
25512223.0307765
 20
6684243.984
 10
25512185.0808144
 20
6684226.589
 10
25512156.1093434
 20
6684212.909
 10
25512126.6283729
 20
6684197.874
 10
25512097.9939015
 20
6684182.669
 10
25512070.5444289
 20
6684167.124
 10
25512040.3829591
 20
6684149.55
 10
25512014.6264849
 20
6684133.834
 10
25511980.3960191
 20
6684111.863
 10
25511943.2825562
 20
6684086.17
 10
25511909.7265898
 20
6684061.658
 10
25511881.7621177
 20
6684040.525
 10
25511838.538161
 20
6684002.479
 10
25511805.9941935
 20
6683974.579
 10
25511755.3112442
 20
6683929.599
 10
25511728.528771
 20
6683905.587
 10
25511700.2217993
 20
6683880.899
 10
25511677.3388221
 20
6683861.285
 10
25511667.0013325
 20
6683854.016
 10
25511657.8503416
 20
6683847.762
 10
25511651.4098481
 20
6683843.029
 10
25511628.528371
 20
6683824.261
 10
25511582.7214168
 20
6683790.891
  0
LWPOLYLINE
  5
200BB
  8
0
100
AcDbEntity
100
AcDbPolyline
 70
0
 90
50
 10
25513937.3500621
 20
6684746
 10
25513917.9245816
 20
6684743.552
 10
25513902.3845971
 20
6684741.569
 10
25513880.6051189
 20
6684738.888
 10
25513862.3571371
 20
6684736.791
 10
25513844.462655
 20
6684734.694
 10
25513825.2731742
 20
6684732.363
 10
25513806.5541929
 20
6684730.031
 10
25513792.8977066
 20
6684728.164
 10
25513772.0592274
 20
6684724.894
 10
25513749.45425
 20
6684721.389
 10
25513728.9687705
 20
6684718.118
 10
25513706.0102935
 20
6684714.026
 10
25513682.3448171
 20
6684709.464
 10
25513665.6263339
 20
6684706.188
 10
25513643.6088559
 20
6684701.506
 10
25513624.0633754
 20
6684697.174
 10
25513604.2828952
 20
6684692.843
 10
25513583.9129156
 20
6684687.688
 10
25513565.8979336
 20
6684683.236
 10
25513544.5859549
 20
6684678.201
 10
25513522.6849768
 20
6684672.224
 10
25513510.6744888
 20
6684668.942
 10
25513497.0150025
 20
6684664.839
 10
25513478.9990205
 20
6684659.446
 10
25513456.2725432
 20
6684652.764
 10
25513434.8415646
 20
6684646.08
 10
25513416.3540831
 20
6684640.334
 10
25513400.1035994
 20
6684634.939
 10
25513373.0191265
 20
6684625.908
 10
25513354.2951452
 20
6684619.221
 10
25513344.9921545
 20
6684616.054
 10
25513326.1496733
 20
6684608.896
 10
25513300.9481985
 20
6684599.274
 10
25513281.2807182
 20
6684591.058
 10
25513260.5537389
 20
6684582.726
 10
25513237.8247617
 20
6684573.689
 10
25513220.511779
 20
6684566.059
 10
25513203.1992963
 20
6684558.546
 10
25513170.1053294
 20
6684543.755
 10
25513150.2013493
 20
6684534.95
 10
25513121.2293783
 20
6684522.272
 10
25513099.4419
 20
6684513.117
 10
25513073.531926
 20
6684501.848
 10
25513046.2094533
 20
6684490.581
 10
25513016.8849826
 20
6684478.374
 10
25512991.447008
 20
6684467.811
 10
25512972.9575265
 20
6684460.417
 10
25512957.8835416
 20
6684454.667
 10
25512917.1390823
 20
6684439.053
  0
LWPOLYLINE
  5
200BC
  8
0
100
AcDbEntity
100
AcDbPolyline
 70
0
 90
60
 10
25512907.6025919
 20
6684435.516
 10
25512879.5716199
 20
6684425.805
 10
25512856.3731431
 20
6684417.946
 10
25512832.7036668
 20
6684410.088
 10
25512812.449687
 20
6684403.521
 10
25512793.7267058
 20
6684397.54
 10
25512779.7137198
 20
6684393.201
 10
25512762.2862372
 20
6684387.808
 10
25512741.9147576
 20
6684381.711
 10
25512708.472791
 20
6684371.628
 10
25512686.6893128
 20
6684365.534
 10
25512663.9633355
 20
6684359.204
 10
25512649.47985
 20
6684354.984
 10
25512631.8183677
 20
6684350.768
 10
25512614.0383854
 20
6684346.199
 10
25512594.9634045
 20
6684341.278
 10
25512567.2934322
 20
6684334.484
 10
25512544.2149553
 20
6684328.391
 10
25512531.3804681
 20
6684324.992
 10
25512475.3315242
 20
6684309.757
 10
25512451.7855477
 20
6684303.532
 10
25512397.7071018
 20
6684288.283
 10
25512363.7451357
 20
6684277.807
 10
25512328.1201714
 20
6684264.75
 10
25512301.9091976
 20
6684255.741
 10
25512280.3127192
 20
6684247.648
 10
25512258.1612413
 20
6684238.634
 10
25512239.51676
 20
6684230.907
 10
25512215.7032838
 20
6684220.604
 10
25512198.3503011
 20
6684212.875
 10
25512173.4283261
 20
6684201.281
 10
25512154.9663445
 20
6684192.078
 10
25512125.6118739
 20
6684176.8
 10
25512107.518892
 20
6684167.227
 10
25512085.9169136
 20
6684155.26
 10
25512064.499435
 20
6684142.924
 10
25512054.3444451
 20
6684136.663
 10
25512036.2489632
 20
6684125.061
 10
25512020.9234786
 20
6684115.485
 10
25511980.2990192
 20
6684088.043
 10
25511962.7565367
 20
6684076.071
 10
25511945.2130543
 20
6684063.177
 10
25511927.8545716
 20
6684050.651
 10
25511896.0906034
 20
6684026.335
 10
25511867.6471318
 20
6684002.014
 10
25511836.9856625
 20
6683974.006
 10
25511805.2161943
 20
6683945.261
 10
25511790.8112087
 20
6683933.839
 10
25511778.8092207
 20
6683926.474
 10
25511749.0712504
 20
6683899.387
 10
25511726.1677733
 20
6683878.75
 10
25511712.6857868
 20
6683867.696
 10
25511701.0497984
 20
6683857.747
 10
25511688.1213114
 20
6683846.692
 10
25511677.2248223
 20
6683838.033
 10
25511656.3553431
 20
6683820.899
 10
25511649.8913496
 20
6683815.741
 10
25511622.7448767
 20
6683795.847
 10
25511602.2468972
 20
6683780.926
 10
25511587.1829123
 20
6683771.73
  0
LWPOLYLINE
  5
200BD
  8
0
100
AcDbEntity
100
AcDbPolyline
 70
0
 90
13
 10
25493770.3457292
 20
6672536.256
 10
25493623.3853761
 20
6672503.944
 10
25493447.524052
 20
6672461.906
 10
25493380.2681192
 20
6672444.27
 10
25493303.0111965
 20
6672421.648
 10
25493248.0202515
 20
6672403.543
 10
25493176.6688228
 20
6672380.459
 10
25492903.506096
 20
6672268.578
 10
25492837.7271618
 20
6672241.093
 10
25492798.7082008
 20
6672226.109
 10
25492754.4067451
 20
6672209.912
 10
25492720.6737788
 20
6672198.577
 10
25492695.0303045
 20
6672192.351
  0
LWPOLYLINE
  5
200BE
  8
0
100
AcDbEntity
100
AcDbPolyline
 70
0
 90
14
 10
25493772.8707266
 20
6672525.184
 10
25493623.3698761
 20
6672491.224
 10
25493492.496007
 20
6672459.581
 10
25493384.3391152
 20
6672429.727
 10
25493278.4502211
 20
6672397.146
 10
25493236.2032633
 20
6672383.874
 10
25493189.3908101
 20
6672367.122
 10
25492994.3885051
 20
6672288.912
 10
25492898.6746008
 20
6672248.333
 10
25492847.0551525
 20
6672227.676
 10
25492800.7201988
 20
6672209.856
 10
25492753.5737459
 20
6672192.85
 10
25492718.6227809
 20
6672182.329
 10
25492695.1348044
 20
6672176.045
  0
LWPOLYLINE
  5
200BF
  8
0
100
AcDbEntity
100
AcDbPolyline
 70
0
 90
7
 10
25494541.9889575
 20
6672698.72
 10
25494534.6124649
 20
6672698.166
 10
25494508.8339907
 20
6672695.073
 10
25494479.9310196
 20
6672691.202
 10
25494453.7610457
 20
6672687.328
 10
25494413.1375864
 20
6672679.567
 10
25494365.0926344
 20
6672668.729
  0
LWPOLYLINE
  5
200C0
  8
0
100
AcDbEntity
100
AcDbPolyline
 70
0
 90
7
 10
25494537.9824615
 20
6672685.734
 10
25494510.3814891
 20
6672682.964
 10
25494486.9465126
 20
6672679.868
 10
25494461.1670383
 20
6672675.604
 10
25494430.3085692
 20
6672669.783
 10
25494401.0130985
 20
6672664.351
 10
25494359.7351398
 20
6672655.464
  0
LWPOLYLINE
  5
200C1
  8
0
100
AcDbEntity
100
AcDbPolyline
 70
0
 90
2
 10
25493442.3795571
 20
6676612.048
 10
25493430.9550686
 20
6676618.804
  0
LWPOLYLINE
  5
200C2
  8
0
100
AcDbEntity
100
AcDbPolyline
 70
0
 90
21
 10
25493430.9550686
 20
6676618.804
 10
25493429.6600698
 20
6676619.639
 10
25493412.6980868
 20
6676623.67
 10
25493395.509604
 20
6676630.221
 10
25493358.1436414
 20
6676634.577
 10
25493310.8776886
 20
6676650.475
 10
25493269.9517296
 20
6676670.481
 10
25493217.9377816
 20
6676689.059
 10
25493196.6768028
 20
6676694.022
 10
25493172.489827
 20
6676698.423
 10
25493129.0168705
 20
6676700.407
 10
25493092.0294075
 20
6676701.487
 10
25493049.8409497
 20
6676700.894
 10
25492999.9204996
 20
6676697.734
 10
25492960.3045392
 20
6676693.595
 10
25492903.6145959
 20
6676684.646
 10
25492739.0107605
 20
6676651.351
 10
25492700.6792988
 20
6676644.312
 10
25492663.9593355
 20
6676638.56
 10
25492631.4283681
 20
6676634.412
 10
25492606.9473926
 20
6676632.214
  0
LWPOLYLINE
  5
200C3
  8
0
100
AcDbEntity
100
AcDbPolyline
 70
0
 90
2
 10
25493398.9201006
 20
6676811.938
 10
25493391.495108
 20
6676792.708
  0
LWPOLYLINE
  5
200C4
  8
0
100
AcDbEntity
100
AcDbPolyline
 70
0
 90
22
 10
25493391.495108
 20
6676792.708
 10
25493385.9951135
 20
6676783.393
 10
25493371.7886277
 20
6676760.481
 10
25493355.3016442
 20
6676744.016
 10
25493333.0486665
 20
6676725.909
 10
25493315.7451838
 20
6676715.215
 10
25493288.5612109
 20
6676704.532
 10
25493260.5637389
 20
6676702.093
 10
25493218.5772809
 20
6676706.265
 10
25493181.530818
 20
6676710.43
 10
25493149.6888498
 20
6676713.012
 10
25493098.486401
 20
6676715.005
 10
25493054.3659451
 20
6676714.414
 10
25492992.529007
 20
6676710.302
 10
25492959.6765398
 20
6676707.121
 10
25492936.8075627
 20
6676703.606
 10
25492856.9236426
 20
6676688.889
 10
25492741.2822582
 20
6676665.518
 10
25492701.0182985
 20
6676658.482
 10
25492657.534842
 20
6676651.771
 10
25492613.4083861
 20
6676646.35
 10
25492606.1248934
 20
6676645.872
  0
LWPOLYLINE
  5
200C5
  8
0
100
AcDbEntity
100
AcDbPolyline
 70
0
 90
14
 10
25498793.9602055
 20
6678488.623
 10
25498788.548211
 20
6678482.475
 10
25498762.0537374
 20
6678454.576
 10
25498682.3248172
 20
6678351.893
 10
25498656.0578434
 20
6678314.353
 10
25498631.7508678
 20
6678279.55
 10
25498611.3603881
 20
6678247.091
 10
25498583.3879161
 20
6678198.658
 10
25498560.4084391
 20
6678147.328
 10
25498514.459485
 20
6678052.951
 10
25498495.6190039
 20
6678015.756
 10
25498400.7700987
 20
6677836.252
 10
25498389.2721102
 20
6677815.348
 10
25498363.9551355
 20
6677757.774
  0
LWPOLYLINE
  5
200C6
  8
0
100
AcDbEntity
100
AcDbPolyline
 70
0
 90
4
 10
25498363.9551355
 20
6677757.774
 10
25498361.7886377
 20
6677752.88
 10
25498350.9461486
 20
6677724.451
 10
25498342.8516566
 20
6677706.032
  0
LWPOLYLINE
  5
200C7
  8
0
100
AcDbEntity
100
AcDbPolyline
 70
0
 90
13
 10
25498778.6032209
 20
6678501.136
 10
25498738.3937611
 20
6678449.811
 10
25498708.2442913
 20
6678412.378
 10
25498667.0728324
 20
6678361.696
 10
25498640.4168591
 20
6678326.642
 10
25498617.0853824
 20
6678293.173
 10
25498582.8769166
 20
6678233.056
 10
25498556.7329428
 20
6678182.49
 10
25498526.8669726
 20
6678124.128
 10
25498372.3661271
 20
6677815.369
 10
25498357.7316418
 20
6677787.465
 10
25498350.2821492
 20
6677769.8
 10
25498348.2941512
 20
6677765.183
  0
LWPOLYLINE
  5
200C8
  8
0
100
AcDbEntity
100
AcDbPolyline
 70
0
 90
2
 10
25498348.2941512
 20
6677765.183
 10
25498326.2691732
 20
6677713.319
  0
LWPOLYLINE
  5
200C9
  8
0
100
AcDbEntity
100
AcDbPolyline
 70
0
 90
3
 10
25504778.9022206
 20
6677805.64
 10
25504762.9472365
 20
6677831.393
 10
25504741.6962578
 20
6677897.677
  0
LWPOLYLINE
  5
200CA
  8
0
100
AcDbEntity
100
AcDbPolyline
 70
0
 90
2
 10
25504741.6962578
 20
6677897.677
 10
25504737.8367617
 20
6677909.715
  0
LWPOLYLINE
  5
200CB
  8
0
100
AcDbEntity
100
AcDbPolyline
 70
0
 90
9
 10
25495190.7653087
 20
6672401.162
 10
25495160.3448392
 20
6672407.71
 10
25495151.0763484
 20
6672412.151
 10
25495149.2763502
 20
6672413.88
 10
25495144.2643552
 20
6672418.214
 10
25495138.0233615
 20
6672428.922
 10
25495122.8033767
 20
6672461.624
 10
25495098.1564013
 20
6672499.249
 10
25495080.3739191
 20
6672521.757
  0
LWPOLYLINE
  5
200CC
  8
0
100
AcDbEntity
100
AcDbPolyline
 70
0
 90
6
 10
25495131.1003684
 20
6672397.425
 10
25495127.7933717
 20
6672406.007
 10
25495118.9853805
 20
6672429.362
 10
25495109.2773902
 20
6672446.05
 10
25495087.7404118
 20
6672483.224
 10
25495063.7029358
 20
6672515.139
  0
LWPOLYLINE
  5
200CD
  8
0
100
AcDbEntity
100
AcDbPolyline
 70
0
 90
3
 10
25503615.8828836
 20
6679554.133
 10
25503502.7914967
 20
6679582.678
 10
25503426.6320729
 20
6679602.954
  0
LWPOLYLINE
  5
200CE
  8
0
100
AcDbEntity
100
AcDbPolyline
 70
0
 90
2
 10
25503627.7753717
 20
6679551.48
 10
25503615.8828836
 20
6679554.133
  0
LWPOLYLINE
  5
200CF
  8
0
100
AcDbEntity
100
AcDbPolyline
 70
0
 90
2
 10
25503640.7403588
 20
6679548.258
 10
25503627.7753717
 20
6679551.48
  0
LWPOLYLINE
  5
200D0
  8
0
100
AcDbEntity
100
AcDbPolyline
 70
0
 90
4
 10
25504031.2524682
 20
6679452.114
 10
25503881.0566184
 20
6679492.186
 10
25503745.4427541
 20
6679525.441
 10
25503640.7403588
 20
6679548.258
  0
ENDSEC
  0
SECTION
  2
OBJECTS
  0
DICTIONARY
  5
C
330
0
100
AcDbDictionary
281
     1
  3
ACAD_GROUP
350
D
  3
ACAD_LAYOUT
350
1A
  3
ACAD_MLEADERSTYLE
350
43
  3
ACAD_MLINESTYLE
350
17
  3
ACAD_PLOTSETTINGS
350
19
  3
ACAD_PLOTSTYLENAME
350
E
  3
ACAD_TABLESTYLE
350
42
  3
ACAD_VISUALSTYLE
350
2A
  0
DICTIONARY
  5
D
102
{ACAD_REACTORS
330
C
102
}
330
C
100
AcDbDictionary
281
     1
  0
DICTIONARY
  5
1A
102
{ACAD_REACTORS
330
C
102
}
330
C
100
AcDbDictionary
281
     1
  3
Layout1
350
1E
  3
Layout2
350
26
  3
Model
350
22
  0
DICTIONARY
  5
43
102
{ACAD_REACTORS
330
C
102
}
330
C
100
AcDbDictionary
281
     1
  0
DICTIONARY
  5
17
102
{ACAD_REACTORS
330
C
102
}
330
C
100
AcDbDictionary
281
     1
  3
Standard
350
18
  0
DICTIONARY
  5
19
102
{ACAD_REACTORS
330
C
102
}
330
C
100
AcDbDictionary
281
     1
  0
ACDBDICTIONARYWDFLT
  5
E
102
{ACAD_REACTORS
330
C
102
}
330
C
100
AcDbDictionary
281
     1
  3
Normal
350
F
100
AcDbDictionaryWithDefault
340
F
  0
DICTIONARY
  5
42
102
{ACAD_REACTORS
330
C
102
}
330
C
100
AcDbDictionary
281
     1
  0
DICTIONARY
  5
2A
102
{ACAD_REACTORS
330
C
102
}
330
C
100
AcDbDictionary
281
     1
  3
2dWireframe
350
2F
  3
3D Hidden
350
31
  3
3dWireframe
350
30
  3
Basic
350
32
  3
Brighten
350
36
  3
ColorChange
350
3A
  3
Conceptual
350
34
  3
Dim
350
35
  3
Facepattern
350
39
  3
Flat
350
2B
  3
FlatWithEdges
350
2C
  3
Gouraud
350
2D
  3
GouraudWithEdges
350
2E
  3
Linepattern
350
38
  3
Realistic
350
33
  3
Thicken
350
37
  0
LAYOUT
  5
1E
102
{ACAD_REACTORS
330
1A
102
}
330
1A
100
AcDbPlotSettings
  1

  2
none_device
  4

  6

 40
0.0
 41
0.0
 42
0.0
 43
0.0
 44
0.0
 45
0.0
 46
0.0
 47
0.0
 48
0.0
 49
0.0
140
0.0
141
0.0
142
1.0
143
1.0
 70
   688
 72
     0
 73
     0
 74
     5
  7

 75
    16
 76
     0
 77
     2
 78
   300
147
1.0
148
0.0
149
0.0
100
AcDbLayout
  1
Layout1
 70
     1
 71
     1
 10
0.0
 20
0.0
 11
12.0
 21
9.0
 12
0.0
 22
0.0
 32
0.0
 14
1.000000000000000E+20
 24
1.000000000000000E+20
 34
1.000000000000000E+20
 15
-1.000000000000000E+20
 25
-1.000000000000000E+20
 35
-1.000000000000000E+20
146
0.0
 13
0.0
 23
0.0
 33
0.0
 16
1.0
 26
0.0
 36
0.0
 17
0.0
 27
1.0
 37
0.0
 76
     0
330
1B
  0
LAYOUT
  5
26
102
{ACAD_REACTORS
330
1A
102
}
330
1A
100
AcDbPlotSettings
  1

  2
none_device
  4

  6

 40
0.0
 41
0.0
 42
0.0
 43
0.0
 44
0.0
 45
0.0
 46
0.0
 47
0.0
 48
0.0
 49
0.0
140
0.0
141
0.0
142
1.0
143
1.0
 70
   688
 72
     0
 73
     0
 74
     5
  7

 75
    16
 76
     0
 77
     2
 78
   300
147
1.0
148
0.0
149
0.0
100
AcDbLayout
  1
Layout2
 70
     1
 71
     2
 10
0.0
 20
0.0
 11
0.0
 21
0.0
 12
0.0
 22
0.0
 32
0.0
 14
0.0
 24
0.0
 34
0.0
 15
0.0
 25
0.0
 35
0.0
146
0.0
 13
0.0
 23
0.0
 33
0.0
 16
1.0
 26
0.0
 36
0.0
 17
0.0
 27
1.0
 37
0.0
 76
     0
330
23
  0
LAYOUT
  5
22
102
{ACAD_REACTORS
330
1A
102
}
330
1A
100
AcDbPlotSettings
  1

  2
none_device
  4

  6

 40
0.0
 41
0.0
 42
0.0
 43
0.0
 44
0.0
 45
0.0
 46
0.0
 47
0.0
 48
0.0
 49
0.0
140
0.0
141
0.0
142
1.0
143
1.0
 70
  1712
 72
     0
 73
     0
 74
     0
  7

 75
     0
 76
     0
 77
     2
 78
   300
147
1.0
148
0.0
149
0.0
100
AcDbLayout
  1
Model
 70
     1
 71
     0
 10
0.0
 20
0.0
 11
12.0
 21
9.0
 12
0.0
 22
0.0
 32
0.0
 14
30.0
 24
49.75
 34
0.0
 15
130.5
 25
163.1318914119703
 35
0.0
146
0.0
 13
0.0
 23
0.0
 33
0.0
 16
1.0
 26
0.0
 36
0.0
 17
0.0
 27
1.0
 37
0.0
 76
     0
330
1F
331
29
  0
MLINESTYLE
  5
18
102
{ACAD_REACTORS
330
17
102
}
330
17
100
AcDbMlineStyle
  2
Standard
 70
     0
  3

 62
   256
 51
90.0
 52
90.0
 71
     2
 49
0.5
 62
   256
  6
BYLAYER
 49
-0.5
 62
   256
  6
BYLAYER
  0
ACDBPLACEHOLDER
  5
F
102
{ACAD_REACTORS
330
E
102
}
330
E
  0
VISUALSTYLE
  5
2F
102
{ACAD_REACTORS
330
2A
102
}
330
2A
100
AcDbVisualStyle
  2
2dWireframe
 70
     4
 71
     0
 72
     2
 73
     0
 90
        0
 40
-0.6
 41
-30.0
 62
     5
 63
     7
421
 16777215
 74
     1
 91
        4
 64
     7
 65
   257
 75
     1
175
     1
 42
1.0
 92
        0
 66
   257
 43
1.0
 76
     1
 77
     6
 78
     2
 67
     7
 79
     5
170
     0
171
     0
290
     0
174
     0
 93
        1
 44
0.0
173
     0
291
     0
 45
0.0
1001
ACAD
1000
AcDbSavedByObjectVersion
1070
     0
  0
VISUALSTYLE
  5
31
102
{ACAD_REACTORS
330
2A
102
}
330
2A
100
AcDbVisualStyle
  2
3D Hidden
 70
     6
 71
     1
 72
     2
 73
     2
 90
        0
 40
-0.6
 41
-30.0
 62
     5
 63
     7
421
 16777215
 74
     2
 91
        2
 64
     7
 65
   257
 75
     2
175
     1
 42
40.0
 92
        0
 66
   257
 43
1.0
 76
     1
 77
     6
 78
     2
 67
     7
 79
     3
170
     0
171
     0
290
     0
174
     0
 93
        1
 44
0.0
173
     0
291
     0
 45
0.0
1001
ACAD
1000
AcDbSavedByObjectVersion
1070
     0
  0
VISUALSTYLE
  5
30
102
{ACAD_REACTORS
330
2A
102
}
330
2A
100
AcDbVisualStyle
  2
3dWireframe
 70
     5
 71
     0
 72
     2
 73
     0
 90
        0
 40
-0.6
 41
-30.0
 62
     5
 63
     7
421
 16777215
 74
     1
 91
        4
 64
     7
 65
   257
 75
     1
175
     1
 42
1.0
 92
        0
 66
   257
 43
1.0
 76
     1
 77
     6
 78
     2
 67
     7
 79
     5
170
     0
171
     0
290
     0
174
     0
 93
        1
 44
0.0
173
     0
291
     0
 45
0.0
1001
ACAD
1000
AcDbSavedByObjectVersion
1070
     0
  0
VISUALSTYLE
  5
32
102
{ACAD_REACTORS
330
2A
102
}
330
2A
100
AcDbVisualStyle
  2
Basic
 70
     7
 71
     1
 72
     0
 73
     1
 90
        0
 40
-0.6
 41
-30.0
 62
     5
 63
     7
421
 16777215
 74
     0
 91
        4
 64
     7
 65
   257
 75
     1
175
     1
 42
1.0
 92
        8
 66
     7
 43
1.0
 76
     1
 77
     6
 78
     2
 67
     7
 79
     5
170
     0
171
     0
290
     0
174
     0
 93
        1
 44
0.0
173
     0
291
     1
 45
0.0
1001
ACAD
1000
AcDbSavedByObjectVersion
1070
     0
  0
VISUALSTYLE
  5
36
102
{ACAD_REACTORS
330
2A
102
}
330
2A
100
AcDbVisualStyle
  2
Brighten
 70
    12
 71
     2
 72
     2
 73
     0
 90
        0
 40
-0.6
 41
-30.0
 62
     5
 63
     7
421
 16777215
 74
     1
 91
        4
 64
     7
 65
   257
 75
     1
175
     1
 42
1.0
 92
        8
 66
     7
 43
1.0
 76
     1
 77
     6
 78
     2
 67
     7
 79
     5
170
     0
171
     0
290
     0
174
     0
 93
        1
 44
50.0
173
     0
291
     1
 45
0.0
1001
ACAD
1000
AcDbSavedByObjectVersion
1070
     0
  0
VISUALSTYLE
  5
3A
102
{ACAD_REACTORS
330
2A
102
}
330
2A
100
AcDbVisualStyle
  2
ColorChange
 70
    16
 71
     2
 72
     2
 73
     3
 90
        0
 40
-0.6
 41
-30.0
 62
     5
 63
     8
421
  8421504
 74
     1
 91
        4
 64
     7
 65
   257
 75
     1
175
     1
 42
1.0
 92
        8
 66
     8
424
  8421504
 43
1.0
 76
     1
 77
     6
 78
     2
 67
     7
 79
     5
170
     0
171
     0
290
     0
174
     0
 93
        1
 44
0.0
173
     0
291
     1
 45
0.0
1001
ACAD
1000
AcDbSavedByObjectVersion
1070
     0
  0
VISUALSTYLE
  5
34
102
{ACAD_REACTORS
330
2A
102
}
330
2A
100
AcDbVisualStyle
  2
Conceptual
 70
     9
 71
     3
 72
     2
 73
     0
 90
        0
 40
-0.6
 41
-30.0
 62
     5
 63
     7
421
 16777215
 74
     2
 91
        2
 64
     7
 65
   257
 75
     1
175
     1
 42
40.0
 92
        8
 66
     7
 43
1.0
 76
     1
 77
     6
 78
     2
 67
     7
 79
     3
170
     0
171
     0
290
     0
174
     0
 93
        1
 44
0.0
173
     0
291
     0
 45
0.0
1001
ACAD
1000
AcDbSavedByObjectVersion
1070
     0
  0
VISUALSTYLE
  5
35
102
{ACAD_REACTORS
330
2A
102
}
330
2A
100
AcDbVisualStyle
  2
Dim
 70
    11
 71
     2
 72
     2
 73
     0
 90
        0
 40
-0.6
 41
-30.0
 62
     5
 63
     7
421
 16777215
 74
     1
 91
        4
 64
     7
 65
   257
 75
     1
175
     1
 42
1.0
 92
        8
 66
     7
 43
1.0
 76
     1
 77
     6
 78
     2
 67
     7
 79
     5
170
     0
171
     0
290
     0
174
     0
 93
        1
 44
-50.0
173
     0
291
     1
 45
0.0
1001
ACAD
1000
AcDbSavedByObjectVersion
1070
     0
  0
VISUALSTYLE
  5
39
102
{ACAD_REACTORS
330
2A
102
}
330
2A
100
AcDbVisualStyle
  2
Facepattern
 70
    15
 71
     2
 72
     2
 73
     0
 90
        0
 40
-0.6
 41
-30.0
 62
     5
 63
     7
421
 16777215
 74
     1
 91
        4
 64
     7
 65
   257
 75
     1
175
     1
 42
1.0
 92
        8
 66
     7
 43
1.0
 76
     1
 77
     6
 78
     2
 67
     7
 79
     5
170
     0
171
     0
290
     0
174
     0
 93
        1
 44
0.0
173
     0
291
     1
 45
0.0
1001
ACAD
1000
AcDbSavedByObjectVersion
1070
     0
  0
VISUALSTYLE
  5
2B
102
{ACAD_REACTORS
330
2A
102
}
330
2A
100
AcDbVisualStyle
  2
Flat
 70
     0
 71
     2
 72
     1
 73
     1
 90
        2
 40
-0.6
 41
30.0
 62
     5
 63
     7
421
 16777215
 74
     0
 91
        4
 64
     7
 65
   257
 75
     1
175
     1
 42
1.0
 92
        8
 66
     7
 43
1.0
 76
     1
 77
     6
 78
     2
 67
     7
 79
     5
170
     0
171
     0
290
     0
174
     0
 93
       13
 44
0.0
173
     0
291
     1
 45
0.0
1001
ACAD
1000
AcDbSavedByObjectVersion
1070
     0
  0
VISUALSTYLE
  5
2C
102
{ACAD_REACTORS
330
2A
102
}
330
2A
100
AcDbVisualStyle
  2
FlatWithEdges
 70
     1
 71
     2
 72
     1
 73
     1
 90
        2
 40
-0.6
 41
30.0
 62
     5
 63
     7
421
 16777215
 74
     1
 91
        4
 64
     7
 65
   257
 75
     1
175
     1
 42
1.0
 92
        0
 66
   257
 43
1.0
 76
     1
 77
     6
 78
     2
 67
     7
 79
     5
170
     0
171
     0
290
     0
174
     0
 93
       13
 44
0.0
173
     0
291
     1
 45
0.0
1001
ACAD
1000
AcDbSavedByObjectVersion
1070
     0
  0
VISUALSTYLE
  5
2D
102
{ACAD_REACTORS
330
2A
102
}
330
2A
100
AcDbVisualStyle
  2
Gouraud
 70
     2
 71
     2
 72
     2
 73
     1
 90
        2
 40
-0.6
 41
30.0
 62
     5
 63
     7
421
 16777215
 74
     0
 91
        4
 64
     7
 65
   257
 75
     1
175
     1
 42
1.0
 92
        0
 66
     7
 43
1.0
 76
     1
 77
     6
 78
     2
 67
     7
 79
     5
170
     0
171
     0
290
     0
174
     0
 93
       13
 44
0.0
173
     0
291
     1
 45
0.0
1001
ACAD
1000
AcDbSavedByObjectVersion
1070
     0
  0
VISUALSTYLE
  5
2E
102
{ACAD_REACTORS
330
2A
102
}
330
2A
100
AcDbVisualStyle
  2
GouraudWithEdges
 70
     3
 71
     2
 72
     2
 73
     1
 90
        2
 40
-0.6
 41
30.0
 62
     5
 63
     7
421
 16777215
 74
     1
 91
        4
 64
     7
 65
   257
 75
     1
175
     1
 42
1.0
 92
        0
 66
   257
 43
1.0
 76
     1
 77
     6
 78
     2
 67
     7
 79
     5
170
     0
171
     0
290
     0
174
     0
 93
       13
 44
0.0
173
     0
291
     1
 45
0.0
1001
ACAD
1000
AcDbSavedByObjectVersion
1070
     0
  0
VISUALSTYLE
  5
38
102
{ACAD_REACTORS
330
2A
102
}
330
2A
100
AcDbVisualStyle
  2
Linepattern
 70
    14
 71
     2
 72
     2
 73
     0
 90
        0
 40
-0.6
 41
-30.0
 62
     5
 63
     7
421
 16777215
 74
     1
 91
        4
 64
     7
 65
   257
 75
     7
175
     7
 42
1.0
 92
        8
 66
     7
 43
1.0
 76
     1
 77
     6
 78
     2
 67
     7
 79
     5
170
     0
171
     0
290
     0
174
     0
 93
        1
 44
0.0
173
     0
291
     1
 45
0.0
1001
ACAD
1000
AcDbSavedByObjectVersion
1070
     0
  0
VISUALSTYLE
  5
33
102
{ACAD_REACTORS
330
2A
102
}
330
2A
100
AcDbVisualStyle
  2
Realistic
 70
     8
 71
     2
 72
     2
 73
     0
 90
        0
 40
-0.6
 41
-30.0
 62
     5
 63
     7
421
 16777215
 74
     1
 91
        0
 64
     7
 65
   257
 75
     1
175
     1
 42
1.0
 92
        8
 66
     8
424
  7895160
 43
1.0
 76
     1
 77
     6
 78
     2
 67
     7
 79
     5
170
     0
171
     0
290
     0
174
     0
 93
       13
 44
0.0
173
     0
291
     0
 45
0.0
1001
ACAD
1000
AcDbSavedByObjectVersion
1070
     0
  0
VISUALSTYLE
  5
37
102
{ACAD_REACTORS
330
2A
102
}
330
2A
100
AcDbVisualStyle
  2
Thicken
 70
    13
 71
     2
 72
     2
 73
     0
 90
        0
 40
-0.6
 41
-30.0
 62
     5
 63
     7
421
 16777215
 74
     1
 91
        4
 64
     7
 65
   257
 75
     1
175
     1
 42
1.0
 92
       12
 66
     7
 43
1.0
 76
     1
 77
     6
 78
     2
 67
     7
 79
     5
170
     0
171
     0
290
     0
174
     0
 93
        1
 44
0.0
173
     0
291
     1
 45
0.0
1001
ACAD
1000
AcDbSavedByObjectVersion
1070
     0
  0
ENDSEC
  0
EOF
